<svg xmlns="http://www.w3.org/2000/svg" version="1.1" width="500" height="500"><rect width="500" height="500" style="fill: #dddddd;"></rect><g transform="translate(-136.97947798366204, -175.2839210998207) "><g><line x1="446.5032875074716" x2="403.36720462243477" y1="350.5678421996414" y2="375.4732018330345" transform="" style="stroke: #FF0D0D; stroke-width: 3; stroke-linecap: butt;"></line><line x1="360.2311217373979" x2="403.36720462243477" y1="400.3785614664276" y2="375.4732018330345" transform="" style="stroke-width: 3; stroke: #909090;"></line></g><g><line x1="446.5032875074716" x2="473.25164375373583" y1="350.5678421996414" y2="366.0091651723451" transform="" style="stroke: #FF0D0D; stroke-width: 3; stroke-linecap: butt;"></line><line x1="500" x2="473.25164375373583" y1="381.45048814504884" y2="366.0091651723451" transform="" style="stroke-width: 3; stroke: #FFFFFF;"></line></g><g><line x1="360.2311217373979" x2="360.2311217373979" y1="500" y2="450.18928073321376" transform="rotate(-90) translate(0, -3) rotate(90) " style="stroke: #FF0D0D; stroke-width: 3; stroke-linecap: butt;"></line><line x1="360.2311217373979" x2="360.2311217373979" y1="500" y2="450.18928073321376" transform="rotate(-90) translate(0, 3) rotate(90) " style="stroke: #FF0D0D; stroke-width: 3; stroke-linecap: butt;"></line><line x1="360.2311217373979" x2="360.2311217373979" y1="400.3785614664276" y2="450.18928073321376" transform="rotate(-90) translate(0, -3) rotate(90) " style="stroke-width: 3; stroke: #909090;"></line><line x1="360.2311217373979" x2="360.2311217373979" y1="400.3785614664276" y2="450.18928073321376" transform="rotate(-90) translate(0, 3) rotate(90) " style="stroke-width: 3; stroke: #909090;"></line></g><g><line x1="273.9589559673242" x2="317.0950388523611" y1="350.5678421996414" y2="375.4732018330345" transform="" style="stroke: #909090; stroke-width: 3; stroke-linecap: butt;"></line><line x1="360.2311217373979" x2="317.0950388523611" y1="400.3785614664276" y2="375.4732018330345" transform="" style="stroke-width: 3; stroke: #909090;"></line></g><g class="atom" transform="translate(446.5032875074716, 350.5678421996414) "><circle r="8" style="fill: #FF0D0D;"></circle></g><g class="atom" transform="translate(360.2311217373979, 500) "><circle r="8" style="fill: #FF0D0D;"></circle></g><g class="atom" transform="translate(500, 381.45048814504884) "><circle r="8" style="fill: #FFFFFF;"></circle></g></g></svg>