<svg xmlns="http://www.w3.org/2000/svg" version="1.1" width="500" height="500"><rect width="500" height="500" style="fill: #dddddd;"></rect><g transform="translate(-127.16909769038153, -170.76555359050235) "><g><line x1="452.99339858866375" x2="415.08343693638477" y1="341.53110718100476" y2="363.419075802413" transform="" style="stroke: #FF0D0D; stroke-width: 3; stroke-linecap: butt;"></line><line x1="377.1734752841058" x2="415.08343693638477" y1="385.30704442382114" y2="363.419075802413" transform="" style="stroke-width: 3; stroke: #FFB5B5;"></line></g><g><line x1="452.99339858866375" x2="476.49669929433185" y1="341.53110718100476" y2="355.10164772627786" transform="" style="stroke: #FF0D0D; stroke-width: 3; stroke-linecap: butt;"></line><line x1="500" x2="476.49669929433185" y1="368.6721882715509" y2="355.10164772627786" transform="" style="stroke-width: 3; stroke: #FFFFFF;"></line></g><g><line x1="301.3447967920993" x2="339.25913603810255" y1="341.53110718100476" y2="363.419075802413" transform="" style="stroke: #FF0D0D; stroke-width: 3; stroke-linecap: butt;"></line><line x1="377.1734752841058" x2="339.25913603810255" y1="385.30704442382114" y2="363.419075802413" transform="" style="stroke-width: 3; stroke: #FFB5B5;"></line></g><g><line x1="301.3447967920993" x2="277.8414960864312" y1="341.53110718100476" y2="355.10164772627786" transform="" style="stroke: #FF0D0D; stroke-width: 3; stroke-linecap: butt;"></line><line x1="254.33819538076307" x2="277.8414960864312" y1="368.6721882715509" y2="355.10164772627786" transform="" style="stroke-width: 3; stroke: #FFFFFF;"></line></g><g><line x1="377.1734752841058" x2="377.1734752841058" y1="472.85891890945385" y2="429.08298166663747" transform="" style="stroke: #FF0D0D; stroke-width: 3; stroke-linecap: butt;"></line><line x1="377.1734752841058" x2="377.1734752841058" y1="385.30704442382114" y2="429.08298166663747" transform="" style="stroke-width: 3; stroke: #FFB5B5;"></line></g><g><line x1="377.1734752841058" x2="353.66579698471344" y1="472.85891890945385" y2="486.42945945472695" transform="" style="stroke: #FF0D0D; stroke-width: 3; stroke-linecap: butt;"></line><line x1="330.158118685321" x2="353.66579698471344" y1="500" y2="486.42945945472695" transform="" style="stroke-width: 3; stroke: #FFFFFF;"></line></g><g class="atom" transform="translate(452.99339858866375, 341.53110718100476) "><circle r="8" style="fill: #FF0D0D;"></circle></g><g class="atom" transform="translate(301.3447967920993, 341.53110718100476) "><circle r="8" style="fill: #FF0D0D;"></circle></g><g class="atom" transform="translate(377.1734752841058, 472.85891890945385) "><circle r="8" style="fill: #FF0D0D;"></circle></g><g class="atom" transform="translate(377.1734752841058, 385.30704442382114) "><circle r="8" style="fill: #FFB5B5;"></circle></g><g class="atom" transform="translate(500, 368.6721882715509) "><circle r="8" style="fill: #FFFFFF;"></circle></g><g class="atom" transform="translate(254.33819538076307, 368.6721882715509) "><circle r="8" style="fill: #FFFFFF;"></circle></g><g class="atom" transform="translate(330.158118685321, 500) "><circle r="8" style="fill: #FFFFFF;"></circle></g></g></svg>