<svg xmlns="http://www.w3.org/2000/svg" version="1.1" width="500" height="500"><rect width="500" height="500" style="fill: #dddddd;"></rect><g transform="translate(-106.94782913450643, -117.60858402679855) "><g><line x1="437.3925162804724" x2="429.07297074812743" y1="312.84995884035766" y2="331.4512645383192" transform="" style="stroke: #A62929; stroke-width: 3; stroke-linecap: butt;"></line><line x1="420.7534252157825" x2="429.07297074812743" y1="350.05257023628076" y2="331.4512645383192" transform="" style="stroke-width: 3; stroke: #909090;"></line></g><g><line x1="218.29688735298674" x2="238.2185617761405" y1="300.9870163742023" y2="305.2578386705028" transform="" style="stroke: #A62929; stroke-width: 3; stroke-linecap: butt;"></line><line x1="258.14023619929424" x2="238.2185617761405" y1="309.52866096680333" y2="305.2578386705028" transform="" style="stroke-width: 3; stroke: #909090;"></line></g><g><line x1="451.9043466212417" x2="439.9578623067331" y1="453.2736178918113" y2="436.76697122085204" transform="" style="stroke: #A62929; stroke-width: 3; stroke-linecap: butt;"></line><line x1="428.01137799222454" x2="439.9578623067331" y1="420.2603245498928" y2="436.76697122085204" transform="" style="stroke-width: 3; stroke: #909090;"></line></g><g><line x1="352.6321795049432" x2="338.9700308901078" y1="257.598232988027" y2="272.71726993390007" transform="" style="stroke: #A62929; stroke-width: 3; stroke-linecap: butt;"></line><line x1="325.3078822752724" x2="338.9700308901078" y1="287.8363068797731" y2="272.71726993390007" transform="" style="stroke-width: 3; stroke: #909090;"></line></g><g><line x1="323.04206433944887" x2="334.9335332904078" y1="461.2202815156529" y2="444.823665571793" transform="" style="stroke: #FFFF30; stroke-width: 3; stroke-linecap: round;"></line><line x1="346.8250022413667" x2="334.9335332904078" y1="428.4270496279331" y2="444.823665571793" transform="" style="stroke-width: 3; stroke: #FF0D0D;"></line></g><g><line x1="356.05128246925256" x2="339.5466734043507" y1="485.1173253567848" y2="473.16880343621887" transform="rotate(35.90268200521497) translate(0, -3) rotate(-35.90268200521497) " style="stroke: #FF0D0D; stroke-width: 3; stroke-linecap: butt;"></line><line x1="356.05128246925256" x2="339.5466734043507" y1="485.1173253567848" y2="473.16880343621887" transform="rotate(35.90268200521497) translate(0, 3) rotate(-35.90268200521497) " style="stroke: #FF0D0D; stroke-width: 3; stroke-linecap: butt;"></line><line x1="323.04206433944887" x2="339.5466734043507" y1="461.2202815156529" y2="473.16880343621887" transform="rotate(35.90268200521497) translate(0, -3) rotate(-35.90268200521497) " style="stroke-width: 3; stroke: #FFFF30;"></line><line x1="323.04206433944887" x2="339.5466734043507" y1="461.2202815156529" y2="473.16880343621887" transform="rotate(35.90268200521497) translate(0, 3) rotate(-35.90268200521497) " style="stroke-width: 3; stroke: #FFFF30;"></line></g><g><line x1="310.51486229858267" x2="316.77846331901577" y1="500" y2="480.61014075782646" transform="rotate(-72.09773329209966) translate(0, -3) rotate(72.09773329209966) " style="stroke: #FF0D0D; stroke-width: 3; stroke-linecap: butt;"></line><line x1="310.51486229858267" x2="316.77846331901577" y1="500" y2="480.61014075782646" transform="rotate(-72.09773329209966) translate(0, 3) rotate(72.09773329209966) " style="stroke: #FF0D0D; stroke-width: 3; stroke-linecap: butt;"></line><line x1="323.04206433944887" x2="316.77846331901577" y1="461.2202815156529" y2="480.61014075782646" transform="rotate(-72.09773329209966) translate(0, -3) rotate(72.09773329209966) " style="stroke-width: 3; stroke: #FFFF30;"></line><line x1="323.04206433944887" x2="316.77846331901577" y1="461.2202815156529" y2="480.61014075782646" transform="rotate(-72.09773329209966) translate(0, 3) rotate(72.09773329209966) " style="stroke-width: 3; stroke: #FFFF30;"></line></g><g><line x1="284.4783320971857" x2="303.7601982183173" y1="448.803110201886" y2="455.0116958587695" transform="" style="stroke: #909090; stroke-width: 3; stroke-linecap: round;"></line><line x1="323.04206433944887" x2="303.7601982183173" y1="461.2202815156529" y2="455.0116958587695" transform="" style="stroke-width: 3; stroke: #FFFF30;"></line></g><g><line x1="323.04206433944887" x2="334.9335332904078" y1="395.62974252809863" y2="412.0283960780159" transform="" style="stroke: #909090; stroke-width: 3; stroke-linecap: round;"></line><line x1="346.8250022413667" x2="334.9335332904078" y1="428.4270496279331" y2="412.0283960780159" transform="" style="stroke-width: 3; stroke: #FF0D0D;"></line></g><g><line x1="485.1866039627363" x2="464.91853650982534" y1="378.87247031207977" y2="380.96712933908213" transform="" style="stroke: #FF0D0D; stroke-width: 3; stroke-linecap: butt;"></line><line x1="444.6504690569144" x2="464.91853650982534" y1="383.06178836608444" y2="380.96712933908213" transform="" style="stroke-width: 3; stroke: #909090;"></line></g><g><line x1="485.1866039627363" x2="492.59330198136814" y1="378.87247031207977" y2="389.1053279323189" transform="" style="stroke: #FF0D0D; stroke-width: 3; stroke-linecap: butt;"></line><line x1="500" x2="492.59330198136814" y1="399.338185552558" y2="389.1053279323189" transform="" style="stroke-width: 3; stroke: #FFFFFF;"></line></g><g><line x1="272.93733138809876" x2="279.2009324085319" y1="240.51494380282497" y2="259.9048030449985" transform="" style="stroke: #FF0D0D; stroke-width: 3; stroke-linecap: butt;"></line><line x1="285.464533428965" x2="279.2009324085319" y1="279.29466228717206" y2="259.9048030449985" transform="" style="stroke-width: 3; stroke: #909090;"></line></g><g><line x1="272.93733138809876" x2="260.58536346816857" y1="240.51494380282497" y2="237.86605592821107" transform="" style="stroke: #FF0D0D; stroke-width: 3; stroke-linecap: butt;"></line><line x1="248.23339554823832" x2="260.58536346816857" y1="235.21716805359716" y2="237.86605592821107" transform="" style="stroke-width: 3; stroke: #FFFFFF;"></line></g><g><line x1="323.04206433944887" x2="303.7601982183173" y1="395.62974252809863" y2="401.84036579103946" transform="" style="stroke: #909090; stroke-width: 3; stroke-linecap: round;"></line><line x1="284.4783320971857" x2="303.7601982183173" y1="408.0509890539803" y2="401.84036579103946" transform="" style="stroke-width: 3; stroke: #909090;"></line></g><g><line x1="363.57819924527075" x2="343.3101317923598" y1="391.4404244740939" y2="393.53508350109627" transform="" style="stroke: #909090; stroke-width: 3; stroke-linecap: butt;"></line><line x1="323.04206433944887" x2="343.3101317923598" y1="395.62974252809863" y2="393.53508350109627" transform="" style="stroke-width: 3; stroke: #909090;"></line></g><g><line x1="323.04206433944887" x2="316.77846331901577" y1="395.62974252809863" y2="376.2398832859251" transform="" style="stroke: #909090; stroke-width: 3; stroke-linecap: butt;"></line><line x1="310.51486229858267" x2="316.77846331901577" y1="356.8500240437515" y2="376.2398832859251" transform="" style="stroke-width: 3; stroke: #909090;"></line></g><g><line x1="284.4783320971857" x2="284.4783320971857" y1="408.0509890539803" y2="428.4270496279331" transform="" style="stroke: #909090; stroke-width: 3; stroke-linecap: round;"></line><line x1="284.4783320971857" x2="284.4783320971857" y1="448.803110201886" y2="428.4270496279331" transform="" style="stroke-width: 3; stroke: #909090;"></line></g><g><line x1="284.4783320971857" x2="266.8326636401425" y1="408.0509890539803" y2="397.8629587670038" transform="" style="stroke: #909090; stroke-width: 3; stroke-linecap: round;"></line><line x1="284.4783320971857" x2="266.8326636401425" y1="408.0509890539803" y2="397.8629587670038" transform="rotate(30.0007277808274,266.8326636401425,397.8629587670038)translate(0, 6) rotate(-30.0007277808274,266.8326636401425,397.8629587670038)translate(53.366532728028496, 79.57259175340074) scale(0.8)" style="stroke: #909090; stroke-width: 3; stroke-linecap: butt;"></line><line x1="249.18699518309927" x2="266.8326636401425" y1="387.67492848002735" y2="397.8629587670038" transform="" style="stroke-width: 3; stroke: #909090;"></line><line x1="249.18699518309927" x2="266.8326636401425" y1="387.67492848002735" y2="397.8629587670038" transform="rotate(30.0007277808274,266.8326636401425,397.8629587670038)translate(0, 6) rotate(-30.0007277808274,266.8326636401425,397.8629587670038)translate(53.366532728028496, 79.57259175340074) scale(0.8)" style="stroke-width: 3; stroke: #909090;"></line></g><g><line x1="249.18699518309927" x2="266.8326636401425" y1="469.1791707758389" y2="458.99114048886247" transform="" style="stroke: #909090; stroke-width: 3; stroke-linecap: round;"></line><line x1="249.18699518309927" x2="266.8326636401425" y1="469.1791707758389" y2="458.99114048886247" transform="rotate(-30.00072778082733,266.8326636401425,458.99114048886247)translate(0, -6) rotate(30.00072778082733,266.8326636401425,458.99114048886247)translate(53.366532728028496, 91.79822809777248) scale(0.8)" style="stroke: #909090; stroke-width: 3; stroke-linecap: butt;"></line><line x1="284.4783320971857" x2="266.8326636401425" y1="448.803110201886" y2="458.99114048886247" transform="" style="stroke-width: 3; stroke: #909090;"></line><line x1="284.4783320971857" x2="266.8326636401425" y1="448.803110201886" y2="458.99114048886247" transform="rotate(-30.00072778082733,266.8326636401425,458.99114048886247)translate(0, -6) rotate(30.00072778082733,266.8326636401425,458.99114048886247)translate(53.366532728028496, 91.79822809777248) scale(0.8)" style="stroke-width: 3; stroke: #909090;"></line></g><g><line x1="387.4752430864027" x2="375.52672116583676" y1="424.45371781601233" y2="407.9470711450531" transform="" style="stroke: #909090; stroke-width: 3; stroke-linecap: round;"></line><line x1="387.4752430864027" x2="375.52672116583676" y1="424.45371781601233" y2="407.9470711450531" transform="rotate(54.10067766488129,375.52672116583676,407.9470711450531)translate(0, -6) rotate(-54.10067766488129,375.52672116583676,407.9470711450531)translate(75.10534423316733, 81.5894142290106) scale(0.8)" style="stroke: #909090; stroke-width: 3; stroke-linecap: butt;"></line><line x1="363.57819924527075" x2="375.52672116583676" y1="391.4404244740939" y2="407.9470711450531" transform="" style="stroke-width: 3; stroke: #909090;"></line><line x1="363.57819924527075" x2="375.52672116583676" y1="391.4404244740939" y2="407.9470711450531" transform="rotate(54.10067766488129,375.52672116583676,407.9470711450531)translate(0, -6) rotate(-54.10067766488129,375.52672116583676,407.9470711450531)translate(75.10534423316733, 81.5894142290106) scale(0.8)" style="stroke-width: 3; stroke: #909090;"></line></g><g><line x1="363.57819924527075" x2="371.8977447776157" y1="391.4404244740939" y2="372.8411563821897" transform="" style="stroke: #909090; stroke-width: 3; stroke-linecap: round;"></line><line x1="380.2172903099607" x2="371.8977447776157" y1="354.2418882902855" y2="372.8411563821897" transform="" style="stroke-width: 3; stroke: #909090;"></line></g><g><line x1="337.83508431613865" x2="324.1749733073607" y1="326.6160253641202" y2="341.7330247039358" transform="" style="stroke: #909090; stroke-width: 3; stroke-linecap: round;"></line><line x1="337.83508431613865" x2="324.1749733073607" y1="326.6160253641202" y2="341.7330247039358" transform="rotate(-47.898218245103905,324.1749733073607,341.7330247039358)translate(0, -6) rotate(47.898218245103905,324.1749733073607,341.7330247039358)translate(64.83499466147212, 68.34660494078715) scale(0.8)" style="stroke: #909090; stroke-width: 3; stroke-linecap: butt;"></line><line x1="310.51486229858267" x2="324.1749733073607" y1="356.8500240437515" y2="341.7330247039358" transform="" style="stroke-width: 3; stroke: #909090;"></line><line x1="310.51486229858267" x2="324.1749733073607" y1="356.8500240437515" y2="341.7330247039358" transform="rotate(-47.898218245103905,324.1749733073607,341.7330247039358)translate(0, -6) rotate(47.898218245103905,324.1749733073607,341.7330247039358)translate(64.83499466147212, 68.34660494078715) scale(0.8)" style="stroke-width: 3; stroke: #909090;"></line></g><g><line x1="310.51486229858267" x2="290.59115026937155" y1="356.8500240437515" y2="352.57920174745095" transform="" style="stroke: #909090; stroke-width: 3; stroke-linecap: round;"></line><line x1="270.66743824016044" x2="290.59115026937155" y1="348.3083794511504" y2="352.57920174745095" transform="" style="stroke-width: 3; stroke: #909090;"></line></g><g><line x1="249.18699518309927" x2="231.54132672605607" y1="387.67492848002735" y2="397.8629587670038" transform="" style="stroke: #909090; stroke-width: 3; stroke-linecap: round;"></line><line x1="213.89565826901287" x2="231.54132672605607" y1="408.0509890539803" y2="397.8629587670038" transform="" style="stroke-width: 3; stroke: #909090;"></line></g><g><line x1="213.89565826901287" x2="231.54132672605607" y1="448.803110201886" y2="458.99114048886247" transform="" style="stroke: #909090; stroke-width: 3; stroke-linecap: round;"></line><line x1="249.18699518309927" x2="231.54132672605607" y1="469.1791707758389" y2="458.99114048886247" transform="" style="stroke-width: 3; stroke: #909090;"></line></g><g><line x1="428.01137799222454" x2="407.7433105393136" y1="420.2603245498928" y2="422.35702118295256" transform="" style="stroke: #909090; stroke-width: 3; stroke-linecap: round;"></line><line x1="387.4752430864027" x2="407.7433105393136" y1="424.45371781601233" y2="422.35702118295256" transform="" style="stroke-width: 3; stroke: #909090;"></line></g><g><line x1="325.3078822752724" x2="331.57148329570555" y1="287.8363068797731" y2="307.2261661219467" transform="" style="stroke: #909090; stroke-width: 3; stroke-linecap: round;"></line><line x1="337.83508431613865" x2="331.57148329570555" y1="326.6160253641202" y2="307.2261661219467" transform="" style="stroke-width: 3; stroke: #909090;"></line></g><g><line x1="380.2172903099607" x2="400.48535776287156" y1="354.2418882902855" y2="352.1472292632831" transform="" style="stroke: #909090; stroke-width: 3; stroke-linecap: round;"></line><line x1="380.2172903099607" x2="400.48535776287156" y1="354.2418882902855" y2="352.1472292632831" transform="rotate(-5.900441937993041,400.48535776287156,352.1472292632831)translate(0, 6) rotate(5.900441937993041,400.48535776287156,352.1472292632831)translate(80.09707155257429, 70.42944585265661) scale(0.8)" style="stroke: #909090; stroke-width: 3; stroke-linecap: butt;"></line><line x1="420.7534252157825" x2="400.48535776287156" y1="350.05257023628076" y2="352.1472292632831" transform="" style="stroke-width: 3; stroke: #909090;"></line><line x1="420.7534252157825" x2="400.48535776287156" y1="350.05257023628076" y2="352.1472292632831" transform="rotate(-5.900441937993041,400.48535776287156,352.1472292632831)translate(0, 6) rotate(5.900441937993041,400.48535776287156,352.1472292632831)translate(80.09707155257429, 70.42944585265661) scale(0.8)" style="stroke-width: 3; stroke: #909090;"></line></g><g><line x1="270.66743824016044" x2="264.40383721972734" y1="348.3083794511504" y2="328.9185202089769" transform="" style="stroke: #909090; stroke-width: 3; stroke-linecap: round;"></line><line x1="270.66743824016044" x2="264.40383721972734" y1="348.3083794511504" y2="328.9185202089769" transform="rotate(72.09773329209966,264.40383721972734,328.9185202089769)translate(0, -6) rotate(-72.09773329209966,264.40383721972734,328.9185202089769)translate(52.88076744394546, 65.78370404179536) scale(0.8)" style="stroke: #909090; stroke-width: 3; stroke-linecap: butt;"></line><line x1="258.14023619929424" x2="264.40383721972734" y1="309.52866096680333" y2="328.9185202089769" transform="" style="stroke-width: 3; stroke: #909090;"></line><line x1="258.14023619929424" x2="264.40383721972734" y1="309.52866096680333" y2="328.9185202089769" transform="rotate(72.09773329209966,264.40383721972734,328.9185202089769)translate(0, -6) rotate(-72.09773329209966,264.40383721972734,328.9185202089769)translate(52.88076744394546, 65.78370404179536) scale(0.8)" style="stroke-width: 3; stroke: #909090;"></line></g><g><line x1="213.89565826901287" x2="213.89565826901287" y1="408.0509890539803" y2="428.4270496279331" transform="" style="stroke: #909090; stroke-width: 3; stroke-linecap: round;"></line><line x1="213.89565826901287" x2="213.89565826901287" y1="408.0509890539803" y2="428.4270496279331" transform="rotate(90,213.89565826901287,428.4270496279331)translate(0, -6) rotate(-90,213.89565826901287,428.4270496279331)translate(42.779131653802565, 85.6854099255866) scale(0.8)" style="stroke: #909090; stroke-width: 3; stroke-linecap: butt;"></line><line x1="213.89565826901287" x2="213.89565826901287" y1="448.803110201886" y2="428.4270496279331" transform="" style="stroke-width: 3; stroke: #909090;"></line><line x1="213.89565826901287" x2="213.89565826901287" y1="448.803110201886" y2="428.4270496279331" transform="rotate(90,213.89565826901287,428.4270496279331)translate(0, -6) rotate(-90,213.89565826901287,428.4270496279331)translate(42.779131653802565, 85.6854099255866) scale(0.8)" style="stroke-width: 3; stroke: #909090;"></line></g><g><line x1="420.7534252157825" x2="432.70194713634845" y1="350.05257023628076" y2="366.5571793011826" transform="" style="stroke: #909090; stroke-width: 3; stroke-linecap: round;"></line><line x1="444.6504690569144" x2="432.70194713634845" y1="383.06178836608444" y2="366.5571793011826" transform="" style="stroke-width: 3; stroke: #909090;"></line></g><g><line x1="258.14023619929424" x2="271.8023848141296" y1="309.52866096680333" y2="294.41166162698767" transform="" style="stroke: #909090; stroke-width: 3; stroke-linecap: round;"></line><line x1="285.464533428965" x2="271.8023848141296" y1="279.29466228717206" y2="294.41166162698767" transform="" style="stroke-width: 3; stroke: #909090;"></line></g><g><line x1="444.6504690569144" x2="436.33092352456947" y1="383.06178836608444" y2="401.6610564579886" transform="" style="stroke: #909090; stroke-width: 3; stroke-linecap: round;"></line><line x1="444.6504690569144" x2="436.33092352456947" y1="383.06178836608444" y2="401.6610564579886" transform="rotate(-65.90079356237412,436.33092352456947,401.6610564579886)translate(0, -6) rotate(65.90079356237412,436.33092352456947,401.6610564579886)translate(87.26618470491387, 80.3322112915977) scale(0.8)" style="stroke: #909090; stroke-width: 3; stroke-linecap: butt;"></line><line x1="428.01137799222454" x2="436.33092352456947" y1="420.2603245498928" y2="401.6610564579886" transform="" style="stroke-width: 3; stroke: #909090;"></line><line x1="428.01137799222454" x2="436.33092352456947" y1="420.2603245498928" y2="401.6610564579886" transform="rotate(-65.90079356237412,436.33092352456947,401.6610564579886)translate(0, -6) rotate(65.90079356237412,436.33092352456947,401.6610564579886)translate(87.26618470491387, 80.3322112915977) scale(0.8)" style="stroke-width: 3; stroke: #909090;"></line></g><g><line x1="285.464533428965" x2="305.3862078521187" y1="279.29466228717206" y2="283.56548458347254" transform="" style="stroke: #909090; stroke-width: 3; stroke-linecap: round;"></line><line x1="285.464533428965" x2="305.3862078521187" y1="279.29466228717206" y2="283.56548458347254" transform="rotate(12.09995974476576,305.3862078521187,283.56548458347254)translate(0, 6) rotate(-12.09995974476576,305.3862078521187,283.56548458347254)translate(61.07724157042372, 56.7130969166945) scale(0.8)" style="stroke: #909090; stroke-width: 3; stroke-linecap: butt;"></line><line x1="325.3078822752724" x2="305.3862078521187" y1="287.8363068797731" y2="283.56548458347254" transform="" style="stroke-width: 3; stroke: #909090;"></line><line x1="325.3078822752724" x2="305.3862078521187" y1="287.8363068797731" y2="283.56548458347254" transform="rotate(12.09995974476576,305.3862078521187,283.56548458347254)translate(0, 6) rotate(-12.09995974476576,305.3862078521187,283.56548458347254)translate(61.07724157042372, 56.7130969166945) scale(0.8)" style="stroke-width: 3; stroke: #909090;"></line></g><g class="atom" transform="translate(437.3925162804724, 312.84995884035766) "><circle r="8" style="fill: #A62929;"></circle></g><g class="atom" transform="translate(218.29688735298674, 300.9870163742023) "><circle r="8" style="fill: #A62929;"></circle></g><g class="atom" transform="translate(451.9043466212417, 453.2736178918113) "><circle r="8" style="fill: #A62929;"></circle></g><g class="atom" transform="translate(352.6321795049432, 257.598232988027) "><circle r="8" style="fill: #A62929;"></circle></g><g class="atom" transform="translate(323.04206433944887, 461.2202815156529) "><circle r="8" style="fill: #FFFF30;"></circle></g><g class="atom" transform="translate(346.8250022413667, 428.4270496279331) "><circle r="8" style="fill: #FF0D0D;"></circle></g><g class="atom" transform="translate(356.05128246925256, 485.1173253567848) "><circle r="8" style="fill: #FF0D0D;"></circle></g><g class="atom" transform="translate(310.51486229858267, 500) "><circle r="8" style="fill: #FF0D0D;"></circle></g><g class="atom" transform="translate(485.1866039627363, 378.87247031207977) "><circle r="8" style="fill: #FF0D0D;"></circle></g><g class="atom" transform="translate(272.93733138809876, 240.51494380282497) "><circle r="8" style="fill: #FF0D0D;"></circle></g><g class="atom" transform="translate(248.23339554823832, 235.21716805359716) "><circle r="8" style="fill: #FFFFFF;"></circle></g><g class="atom" transform="translate(500, 399.338185552558) "><circle r="8" style="fill: #FFFFFF;"></circle></g></g></svg>