<svg xmlns="http://www.w3.org/2000/svg" version="1.1" width="500" height="500"><rect width="500" height="500" style="fill: #dddddd;"></rect><g transform="translate(-108.84609507571798, -112.73051156880564) "><g><line x1="348.8575955220639" x2="337.12392334108074" y1="429.37680448436987" y2="445.5558415029395" transform="" style="stroke: #FF0D0D; stroke-width: 3; stroke-linecap: round;"></line><line x1="325.39025116009753" x2="337.12392334108074" y1="461.7348785215091" y2="445.5558415029395" transform="" style="stroke-width: 3; stroke: #FFFF30;"></line></g><g><line x1="357.96144535679525" x2="341.6758482584464" y1="485.3148146658839" y2="473.52484659369645" transform="rotate(35.902682005215105) translate(0, -3) rotate(-35.902682005215105) " style="stroke: #FF0D0D; stroke-width: 3; stroke-linecap: butt;"></line><line x1="357.96144535679525" x2="341.6758482584464" y1="485.3148146658839" y2="473.52484659369645" transform="rotate(35.902682005215105) translate(0, 3) rotate(-35.902682005215105) " style="stroke: #FF0D0D; stroke-width: 3; stroke-linecap: butt;"></line><line x1="325.39025116009753" x2="341.6758482584464" y1="461.7348785215091" y2="473.52484659369645" transform="rotate(35.902682005215105) translate(0, -3) rotate(-35.902682005215105) " style="stroke-width: 3; stroke: #FFFF30;"></line><line x1="325.39025116009753" x2="341.6758482584464" y1="461.7348785215091" y2="473.52484659369645" transform="rotate(35.902682005215105) translate(0, 3) rotate(-35.902682005215105) " style="stroke-width: 3; stroke: #FFFF30;"></line></g><g><line x1="313.0292819056963" x2="319.2097665328969" y1="500" y2="480.8674392607545" transform="rotate(-72.09773329209946) translate(0, -3) rotate(72.09773329209946) " style="stroke: #FF0D0D; stroke-width: 3; stroke-linecap: butt;"></line><line x1="313.0292819056963" x2="319.2097665328969" y1="500" y2="480.8674392607545" transform="rotate(-72.09773329209946) translate(0, 3) rotate(72.09773329209946) " style="stroke: #FF0D0D; stroke-width: 3; stroke-linecap: butt;"></line><line x1="325.39025116009753" x2="319.2097665328969" y1="461.7348785215091" y2="480.8674392607545" transform="rotate(-72.09773329209946) translate(0, -3) rotate(72.09773329209946) " style="stroke-width: 3; stroke: #FFFF30;"></line><line x1="325.39025116009753" x2="319.2097665328969" y1="461.7348785215091" y2="480.8674392607545" transform="rotate(-72.09773329209946) translate(0, 3) rotate(72.09773329209946) " style="stroke-width: 3; stroke: #FFFF30;"></line></g><g><line x1="287.3382498411651" x2="306.36425050063133" y1="449.48247991443026" y2="455.60867921796967" transform="" style="stroke: #909090; stroke-width: 3; stroke-linecap: round;"></line><line x1="325.39025116009753" x2="306.36425050063133" y1="461.7348785215091" y2="455.60867921796967" transform="" style="stroke-width: 3; stroke: #FFFF30;"></line></g><g><line x1="325.39025116009753" x2="337.12392334108074" y1="397.01873044723067" y2="413.19776746580027" transform="" style="stroke: #909090; stroke-width: 3; stroke-linecap: round;"></line><line x1="348.8575955220639" x2="337.12392334108074" y1="429.37680448436987" y2="413.19776746580027" transform="" style="stroke-width: 3; stroke: #FF0D0D;"></line></g><g><line x1="275.95039527757893" x2="282.1308799047795" y1="243.95824453326685" y2="263.09080527251234" transform="" style="stroke: #FF0D0D; stroke-width: 3; stroke-linecap: butt;"></line><line x1="288.3113645319801" x2="282.1308799047795" y1="282.22336601175783" y2="263.09080527251234" transform="" style="stroke-width: 3; stroke: #909090;"></line></g><g><line x1="292.66223269504513" x2="284.30631398631203" y1="225.46102313761128" y2="234.70963383543906" transform="" style="stroke: #FFFFFF; stroke-width: 3; stroke-linecap: butt;"></line><line x1="275.95039527757893" x2="284.30631398631203" y1="243.95824453326685" y2="234.70963383543906" transform="" style="stroke-width: 3; stroke: #FF0D0D;"></line></g><g><line x1="445.384943261784" x2="465.384058612065" y1="384.61352870688336" y2="382.5466652726732" transform="" style="stroke: #909090; stroke-width: 3; stroke-linecap: butt;"></line><line x1="485.3831739623461" x2="465.384058612065" y1="380.479801838463" y2="382.5466652726732" transform="" style="stroke-width: 3; stroke: #FF0D0D;"></line></g><g><line x1="485.3831739623461" x2="492.69158698117303" y1="380.479801838463" y2="390.57888260698235" transform="" style="stroke: #FF0D0D; stroke-width: 3; stroke-linecap: butt;"></line><line x1="500" x2="492.69158698117303" y1="400.6779633755017" y2="390.57888260698235" transform="" style="stroke-width: 3; stroke: #FFFFFF;"></line></g><g><line x1="287.3382498411651" x2="306.36425050063133" y1="409.2711290543094" y2="403.1449297507701" transform="" style="stroke: #909090; stroke-width: 3; stroke-linecap: round;"></line><line x1="325.39025116009753" x2="306.36425050063133" y1="397.01873044723067" y2="403.1449297507701" transform="" style="stroke-width: 3; stroke: #909090;"></line></g><g><line x1="325.39025116009753" x2="345.3893665103786" y1="397.01873044723067" y2="394.95186701302043" transform="" style="stroke: #909090; stroke-width: 3; stroke-linecap: butt;"></line><line x1="365.3884818606596" x2="345.3893665103786" y1="392.8850035788102" y2="394.95186701302043" transform="" style="stroke-width: 3; stroke: #909090;"></line></g><g><line x1="313.0292819056963" x2="319.2097665328969" y1="358.75360896873974" y2="377.88616970798523" transform="" style="stroke: #909090; stroke-width: 3; stroke-linecap: butt;"></line><line x1="325.39025116009753" x2="319.2097665328969" y1="397.01873044723067" y2="377.88616970798523" transform="" style="stroke-width: 3; stroke: #909090;"></line></g><g><line x1="287.3382498411651" x2="287.3382498411651" y1="409.2711290543094" y2="429.3768044843698" transform="" style="stroke: #909090; stroke-width: 3; stroke-linecap: round;"></line><line x1="287.3382498411651" x2="287.3382498411651" y1="449.48247991443026" y2="429.3768044843698" transform="" style="stroke-width: 3; stroke: #909090;"></line></g><g><line x1="252.51521999630054" x2="269.92673491873285" y1="389.16545362424904" y2="399.21829133927923" transform="" style="stroke: #909090; stroke-width: 3; stroke-linecap: round;"></line><line x1="252.51521999630054" x2="269.92673491873285" y1="389.16545362424904" y2="399.21829133927923" transform="rotate(30.00072778082738,269.92673491873285,399.21829133927923)translate(0, 6) rotate(-30.00072778082738,269.92673491873285,399.21829133927923)translate(53.98534698374656, 79.84365826785583) scale(0.8)" style="stroke: #909090; stroke-width: 3; stroke-linecap: butt;"></line><line x1="287.3382498411651" x2="269.92673491873285" y1="409.2711290543094" y2="399.21829133927923" transform="" style="stroke-width: 3; stroke: #909090;"></line><line x1="287.3382498411651" x2="269.92673491873285" y1="409.2711290543094" y2="399.21829133927923" transform="rotate(30.00072778082738,269.92673491873285,399.21829133927923)translate(0, 6) rotate(-30.00072778082738,269.92673491873285,399.21829133927923)translate(53.98534698374656, 79.84365826785583) scale(0.8)" style="stroke-width: 3; stroke: #909090;"></line></g><g><line x1="252.51521999630054" x2="269.92673491873285" y1="469.58815534449064" y2="459.53531762946045" transform="" style="stroke: #909090; stroke-width: 3; stroke-linecap: round;"></line><line x1="252.51521999630054" x2="269.92673491873285" y1="469.58815534449064" y2="459.53531762946045" transform="rotate(-30.00072778082738,269.92673491873285,459.53531762946045)translate(0, -6) rotate(30.00072778082738,269.92673491873285,459.53531762946045)translate(53.98534698374656, 91.90706352589207) scale(0.8)" style="stroke: #909090; stroke-width: 3; stroke-linecap: butt;"></line><line x1="287.3382498411651" x2="269.92673491873285" y1="449.48247991443026" y2="459.53531762946045" transform="" style="stroke-width: 3; stroke: #909090;"></line><line x1="287.3382498411651" x2="269.92673491873285" y1="449.48247991443026" y2="459.53531762946045" transform="rotate(-30.00072778082738,269.92673491873285,459.53531762946045)translate(0, -6) rotate(30.00072778082738,269.92673491873285,459.53531762946045)translate(53.98534698374656, 91.90706352589207) scale(0.8)" style="stroke-width: 3; stroke: #909090;"></line></g><g><line x1="365.3884818606596" x2="377.178449932847" y1="392.8850035788102" y2="409.17060067715914" transform="" style="stroke: #909090; stroke-width: 3; stroke-linecap: round;"></line><line x1="365.3884818606596" x2="377.178449932847" y1="392.8850035788102" y2="409.17060067715914" transform="rotate(54.09731799478504,377.178449932847,409.17060067715914)translate(0, -6) rotate(-54.09731799478504,377.178449932847,409.17060067715914)translate(75.43568998656939, 81.83412013543182) scale(0.8)" style="stroke: #909090; stroke-width: 3; stroke-linecap: butt;"></line><line x1="388.96841800503444" x2="377.178449932847" y1="425.4561977755081" y2="409.17060067715914" transform="" style="stroke-width: 3; stroke: #909090;"></line><line x1="388.96841800503444" x2="377.178449932847" y1="425.4561977755081" y2="409.17060067715914" transform="rotate(54.09731799478504,377.178449932847,409.17060067715914)translate(0, -6) rotate(-54.09731799478504,377.178449932847,409.17060067715914)translate(75.43568998656939, 81.83412013543182) scale(0.8)" style="stroke-width: 3; stroke: #909090;"></line></g><g><line x1="365.3884818606596" x2="373.5976291387533" y1="392.8850035788102" y2="374.5305324787081" transform="" style="stroke: #909090; stroke-width: 3; stroke-linecap: round;"></line><line x1="381.8067764168469" x2="373.5976291387533" y1="356.17606137860594" y2="374.5305324787081" transform="" style="stroke-width: 3; stroke: #909090;"></line></g><g><line x1="273.7106230346702" x2="293.36995247018325" y1="350.3253098284584" y2="354.5394593985991" transform="" style="stroke: #909090; stroke-width: 3; stroke-linecap: round;"></line><line x1="273.7106230346702" x2="293.36995247018325" y1="350.3253098284584" y2="354.5394593985991" transform="rotate(12.098758737818141,293.36995247018325,354.5394593985991)translate(0, -6) rotate(-12.098758737818141,293.36995247018325,354.5394593985991)translate(58.67399049403664, 70.9078918797198) scale(0.8)" style="stroke: #909090; stroke-width: 3; stroke-linecap: butt;"></line><line x1="313.0292819056963" x2="293.36995247018325" y1="358.75360896873974" y2="354.5394593985991" transform="" style="stroke-width: 3; stroke: #909090;"></line><line x1="313.0292819056963" x2="293.36995247018325" y1="358.75360896873974" y2="354.5394593985991" transform="rotate(12.098758737818141,293.36995247018325,354.5394593985991)translate(0, -6) rotate(-12.098758737818141,293.36995247018325,354.5394593985991)translate(58.67399049403664, 70.9078918797198) scale(0.8)" style="stroke-width: 3; stroke: #909090;"></line></g><g><line x1="339.9869715223213" x2="326.50812671400877" y1="328.91678663053005" y2="343.8351977996349" transform="" style="stroke: #909090; stroke-width: 3; stroke-linecap: round;"></line><line x1="313.0292819056963" x2="326.50812671400877" y1="358.75360896873974" y2="343.8351977996349" transform="" style="stroke-width: 3; stroke: #909090;"></line></g><g><line x1="252.51521999630054" x2="235.10370507386824" y1="389.16545362424904" y2="399.21829133927923" transform="" style="stroke: #909090; stroke-width: 3; stroke-linecap: round;"></line><line x1="217.69219015143597" x2="235.10370507386824" y1="409.2711290543094" y2="399.21829133927923" transform="" style="stroke-width: 3; stroke: #909090;"></line></g><g><line x1="217.69219015143597" x2="235.10370507386824" y1="449.48247991443026" y2="459.53531762946045" transform="" style="stroke: #909090; stroke-width: 3; stroke-linecap: round;"></line><line x1="252.51521999630054" x2="235.10370507386824" y1="469.58815534449064" y2="459.53531762946045" transform="" style="stroke-width: 3; stroke: #909090;"></line></g><g><line x1="428.9666487055966" x2="408.9675333553155" y1="421.3224709070877" y2="423.38933434129785" transform="" style="stroke: #909090; stroke-width: 3; stroke-linecap: round;"></line><line x1="388.96841800503444" x2="408.9675333553155" y1="425.4561977755081" y2="423.38933434129785" transform="" style="stroke-width: 3; stroke: #909090;"></line></g><g><line x1="273.7106230346702" x2="267.5301384074696" y1="350.3253098284584" y2="331.19274908921295" transform="" style="stroke: #909090; stroke-width: 3; stroke-linecap: round;"></line><line x1="261.3496537802691" x2="267.5301384074696" y1="312.06018834996746" y2="331.19274908921295" transform="" style="stroke-width: 3; stroke: #909090;"></line></g><g><line x1="327.6260022679202" x2="333.80648689512077" y1="290.65166515203913" y2="309.78422589128456" transform="" style="stroke: #909090; stroke-width: 3; stroke-linecap: round;"></line><line x1="327.6260022679202" x2="333.80648689512077" y1="290.65166515203913" y2="309.78422589128456" transform="rotate(72.0977332920997,333.80648689512077,309.78422589128456)translate(0, 6) rotate(-72.0977332920997,333.80648689512077,309.78422589128456)translate(66.76129737902414, 61.9568451782569) scale(0.8)" style="stroke: #909090; stroke-width: 3; stroke-linecap: butt;"></line><line x1="339.9869715223213" x2="333.80648689512077" y1="328.91678663053005" y2="309.78422589128456" transform="" style="stroke-width: 3; stroke: #909090;"></line><line x1="339.9869715223213" x2="333.80648689512077" y1="328.91678663053005" y2="309.78422589128456" transform="rotate(72.0977332920997,333.80648689512077,309.78422589128456)translate(0, 6) rotate(-72.0977332920997,333.80648689512077,309.78422589128456)translate(66.76129737902414, 61.9568451782569) scale(0.8)" style="stroke-width: 3; stroke: #909090;"></line></g><g><line x1="381.8067764168469" x2="401.80589176712795" y1="356.17606137860594" y2="354.10919794439576" transform="" style="stroke: #909090; stroke-width: 3; stroke-linecap: round;"></line><line x1="381.8067764168469" x2="401.80589176712795" y1="356.17606137860594" y2="354.10919794439576" transform="rotate(-5.900441937992922,401.80589176712795,354.10919794439576)translate(0, 6) rotate(5.900441937992922,401.80589176712795,354.10919794439576)translate(80.36117835342557, 70.82183958887913) scale(0.8)" style="stroke: #909090; stroke-width: 3; stroke-linecap: butt;"></line><line x1="421.80500711740905" x2="401.80589176712795" y1="352.0423345101856" y2="354.10919794439576" transform="" style="stroke-width: 3; stroke: #909090;"></line><line x1="421.80500711740905" x2="401.80589176712795" y1="352.0423345101856" y2="354.10919794439576" transform="rotate(-5.900441937992922,401.80589176712795,354.10919794439576)translate(0, 6) rotate(5.900441937992922,401.80589176712795,354.10919794439576)translate(80.36117835342557, 70.82183958887913) scale(0.8)" style="stroke-width: 3; stroke: #909090;"></line></g><g><line x1="217.69219015143597" x2="217.69219015143597" y1="409.2711290543094" y2="429.3768044843698" transform="" style="stroke: #909090; stroke-width: 3; stroke-linecap: round;"></line><line x1="217.69219015143597" x2="217.69219015143597" y1="409.2711290543094" y2="429.3768044843698" transform="rotate(90,217.69219015143597,429.3768044843698)translate(0, -6) rotate(-90,217.69219015143597,429.3768044843698)translate(43.53843803028718, 85.87536089687394) scale(0.8)" style="stroke: #909090; stroke-width: 3; stroke-linecap: butt;"></line><line x1="217.69219015143597" x2="217.69219015143597" y1="449.48247991443026" y2="429.3768044843698" transform="" style="stroke-width: 3; stroke: #909090;"></line><line x1="217.69219015143597" x2="217.69219015143597" y1="449.48247991443026" y2="429.3768044843698" transform="rotate(90,217.69219015143597,429.3768044843698)translate(0, -6) rotate(-90,217.69219015143597,429.3768044843698)translate(43.53843803028718, 85.87536089687394) scale(0.8)" style="stroke-width: 3; stroke: #909090;"></line></g><g><line x1="428.9666487055966" x2="437.17579598369025" y1="421.3224709070877" y2="402.9679998069855" transform="" style="stroke: #909090; stroke-width: 3; stroke-linecap: round;"></line><line x1="428.9666487055966" x2="437.17579598369025" y1="421.3224709070877" y2="402.9679998069855" transform="rotate(-65.90313293966932,437.17579598369025,402.9679998069855)translate(0, -6) rotate(65.90313293966932,437.17579598369025,402.9679998069855)translate(87.43515919673803, 80.59359996139709) scale(0.8)" style="stroke: #909090; stroke-width: 3; stroke-linecap: butt;"></line><line x1="445.384943261784" x2="437.17579598369025" y1="384.61352870688336" y2="402.9679998069855" transform="" style="stroke-width: 3; stroke: #909090;"></line><line x1="445.384943261784" x2="437.17579598369025" y1="384.61352870688336" y2="402.9679998069855" transform="rotate(-65.90313293966932,437.17579598369025,402.9679998069855)translate(0, -6) rotate(65.90313293966932,437.17579598369025,402.9679998069855)translate(87.43515919673803, 80.59359996139709) scale(0.8)" style="stroke-width: 3; stroke: #909090;"></line></g><g><line x1="452.5425637148854" x2="440.754606210241" y1="453.8936651037855" y2="437.6080680054366" transform="" style="stroke: #909090; stroke-width: 3; stroke-linecap: butt;"></line><line x1="428.9666487055966" x2="440.754606210241" y1="421.3224709070877" y2="437.6080680054366" transform="" style="stroke-width: 3; stroke: #909090;"></line></g><g><line x1="288.3113645319801" x2="274.83050915612455" y1="282.22336601175783" y2="297.1417771808626" transform="" style="stroke: #909090; stroke-width: 3; stroke-linecap: round;"></line><line x1="288.3113645319801" x2="274.83050915612455" y1="282.22336601175783" y2="297.1417771808626" transform="rotate(-47.89780857741268,274.83050915612455,297.1417771808626)translate(0, 6) rotate(47.89780857741268,274.83050915612455,297.1417771808626)translate(54.9661018312249, 59.42835543617251) scale(0.8)" style="stroke: #909090; stroke-width: 3; stroke-linecap: butt;"></line><line x1="261.3496537802691" x2="274.83050915612455" y1="312.06018834996746" y2="297.1417771808626" transform="" style="stroke-width: 3; stroke: #909090;"></line><line x1="261.3496537802691" x2="274.83050915612455" y1="312.06018834996746" y2="297.1417771808626" transform="rotate(-47.89780857741268,274.83050915612455,297.1417771808626)translate(0, 6) rotate(47.89780857741268,274.83050915612455,297.1417771808626)translate(54.9661018312249, 59.42835543617251) scale(0.8)" style="stroke-width: 3; stroke: #909090;"></line></g><g><line x1="261.3496537802691" x2="241.69233491229903" y1="312.06018834996746" y2="307.8460387798268" transform="" style="stroke: #909090; stroke-width: 3; stroke-linecap: butt;"></line><line x1="222.03501604432898" x2="241.69233491229903" y1="303.6318892096861" y2="307.8460387798268" transform="" style="stroke-width: 3; stroke: #909090;"></line></g><g><line x1="421.80500711740905" x2="433.59497518959654" y1="352.0423345101856" y2="368.32793160853447" transform="" style="stroke: #909090; stroke-width: 3; stroke-linecap: round;"></line><line x1="445.384943261784" x2="433.59497518959654" y1="384.61352870688336" y2="368.32793160853447" transform="" style="stroke-width: 3; stroke: #909090;"></line></g><g><line x1="288.3113645319801" x2="307.9686833999501" y1="282.22336601175783" y2="286.4375155818985" transform="" style="stroke: #909090; stroke-width: 3; stroke-linecap: round;"></line><line x1="327.6260022679202" x2="307.9686833999501" y1="290.65166515203913" y2="286.4375155818985" transform="" style="stroke-width: 3; stroke: #909090;"></line></g><g class="atom" transform="translate(325.39025116009753, 461.7348785215091) "><circle r="8" style="fill: #FFFF30;"></circle></g><g class="atom" transform="translate(348.8575955220639, 429.37680448436987) "><circle r="8" style="fill: #FF0D0D;"></circle></g><g class="atom" transform="translate(357.96144535679525, 485.3148146658839) "><circle r="8" style="fill: #FF0D0D;"></circle></g><g class="atom" transform="translate(313.0292819056963, 500) "><circle r="8" style="fill: #FF0D0D;"></circle></g><g class="atom" transform="translate(275.95039527757893, 243.95824453326685) "><circle r="8" style="fill: #FF0D0D;"></circle></g><g class="atom" transform="translate(485.3831739623461, 380.479801838463) "><circle r="8" style="fill: #FF0D0D;"></circle></g><g class="atom" transform="translate(292.66223269504513, 225.46102313761128) "><circle r="8" style="fill: #FFFFFF;"></circle></g><g class="atom" transform="translate(500, 400.6779633755017) "><circle r="8" style="fill: #FFFFFF;"></circle></g></g></svg>