<svg xmlns="http://www.w3.org/2000/svg" version="1.1" width="500" height="500"><rect width="500" height="500" style="fill: #dddddd;"></rect><g transform="translate(-113.73649098199996, -112.43728758698819) "><g><line x1="461.0688532844221" x2="461.0688532844221" y1="238.81066695437954" y2="261.28823434212654" transform="" style="stroke: #FF0D0D; stroke-width: 3; stroke-linecap: butt;"></line><line x1="461.0688532844221" x2="461.0688532844221" y1="283.7658017298736" y2="261.28823434212654" transform="" style="stroke-width: 3; stroke: #909090;"></line></g><g><line x1="461.0688532844221" x2="473.1370592149035" y1="238.81066695437954" y2="231.84262106417796" transform="" style="stroke: #FF0D0D; stroke-width: 3; stroke-linecap: butt;"></line><line x1="485.2052651453849" x2="473.1370592149035" y1="224.87457517397638" y2="231.84262106417796" transform="" style="stroke-width: 3; stroke: #FFFFFF;"></line></g><g><line x1="227.47298196399993" x2="246.93855532178884" y1="283.7658017298736" y2="295.00458542374713" transform="" style="stroke: #FF0D0D; stroke-width: 3; stroke-linecap: butt;"></line><line x1="266.40412867957775" x2="246.93855532178884" y1="306.24336911762066" y2="295.00458542374713" transform="" style="stroke-width: 3; stroke: #909090;"></line></g><g><line x1="227.47298196399993" x2="227.47298196399993" y1="283.7658017298736" y2="269.82970994947044" transform="" style="stroke: #FF0D0D; stroke-width: 3; stroke-linecap: butt;"></line><line x1="227.47298196399993" x2="227.47298196399993" y1="255.8936181690673" y2="269.82970994947044" transform="" style="stroke-width: 3; stroke: #FFFFFF;"></line></g><g><line x1="266.40412867957775" x2="266.40412867957775" y1="486.06390821959684" y2="463.58634083184984" transform="" style="stroke: #FF0D0D; stroke-width: 3; stroke-linecap: butt;"></line><line x1="266.40412867957775" x2="266.40412867957775" y1="441.1087734441028" y2="463.58634083184984" transform="" style="stroke-width: 3; stroke: #909090;"></line></g><g><line x1="266.40412867957775" x2="254.33592274909637" y1="486.06390821959684" y2="493.03195410979845" transform="" style="stroke: #FF0D0D; stroke-width: 3; stroke-linecap: butt;"></line><line x1="242.267716818615" x2="254.33592274909637" y1="500" y2="493.03195410979845" transform="" style="stroke-width: 3; stroke: #FFFFFF;"></line></g><g><line x1="500" x2="480.5344266422111" y1="441.1087734441028" y2="429.86998975022925" transform="" style="stroke: #FF0D0D; stroke-width: 3; stroke-linecap: butt;"></line><line x1="461.0688532844221" x2="480.5344266422111" y1="418.6312060563558" y2="429.86998975022925" transform="" style="stroke-width: 3; stroke: #909090;"></line></g><g><line x1="500" x2="500" y1="441.1087734441028" y2="455.04486522450594" transform="" style="stroke: #FF0D0D; stroke-width: 3; stroke-linecap: butt;"></line><line x1="500" x2="500" y1="468.9809570049091" y2="455.04486522450594" transform="" style="stroke-width: 3; stroke: #FFFFFF;"></line></g><g><line x1="422.1332110553667" x2="441.60103216989444" y1="441.1087734441028" y2="429.86998975022925" transform="rotate(-29.997863113888876) translate(0, -3) rotate(29.997863113888876) " style="stroke: #FF0D0D; stroke-width: 3; stroke-linecap: butt;"></line><line x1="422.1332110553667" x2="441.60103216989444" y1="441.1087734441028" y2="429.86998975022925" transform="rotate(-29.997863113888876) translate(0, 3) rotate(29.997863113888876) " style="stroke: #FF0D0D; stroke-width: 3; stroke-linecap: butt;"></line><line x1="461.0688532844221" x2="441.60103216989444" y1="418.6312060563558" y2="429.86998975022925" transform="rotate(-29.997863113888876) translate(0, -3) rotate(29.997863113888876) " style="stroke-width: 3; stroke: #909090;"></line><line x1="461.0688532844221" x2="441.60103216989444" y1="418.6312060563558" y2="429.86998975022925" transform="rotate(-29.997863113888876) translate(0, 3) rotate(29.997863113888876) " style="stroke-width: 3; stroke: #909090;"></line></g><g><line x1="500" x2="480.5344266422111" y1="306.24336911762066" y2="295.00458542374713" transform="rotate(30.000727780827386) translate(0, -3) rotate(-30.000727780827386) " style="stroke: #FF0D0D; stroke-width: 3; stroke-linecap: butt;"></line><line x1="500" x2="480.5344266422111" y1="306.24336911762066" y2="295.00458542374713" transform="rotate(30.000727780827386) translate(0, 3) rotate(-30.000727780827386) " style="stroke: #FF0D0D; stroke-width: 3; stroke-linecap: butt;"></line><line x1="461.0688532844221" x2="480.5344266422111" y1="283.7658017298736" y2="295.00458542374713" transform="rotate(30.000727780827386) translate(0, -3) rotate(-30.000727780827386) " style="stroke-width: 3; stroke: #909090;"></line><line x1="461.0688532844221" x2="480.5344266422111" y1="283.7658017298736" y2="295.00458542374713" transform="rotate(30.000727780827386) translate(0, 3) rotate(-30.000727780827386) " style="stroke-width: 3; stroke: #909090;"></line></g><g><line x1="305.3352753951556" x2="285.86970203736666" y1="283.7658017298736" y2="295.00458542374713" transform="rotate(-30.00072778082742) translate(0, -3) rotate(30.00072778082742) " style="stroke: #FF0D0D; stroke-width: 3; stroke-linecap: butt;"></line><line x1="305.3352753951556" x2="285.86970203736666" y1="283.7658017298736" y2="295.00458542374713" transform="rotate(-30.00072778082742) translate(0, 3) rotate(30.00072778082742) " style="stroke: #FF0D0D; stroke-width: 3; stroke-linecap: butt;"></line><line x1="266.40412867957775" x2="285.86970203736666" y1="306.24336911762066" y2="295.00458542374713" transform="rotate(-30.00072778082742) translate(0, -3) rotate(30.00072778082742) " style="stroke-width: 3; stroke: #909090;"></line><line x1="266.40412867957775" x2="285.86970203736666" y1="306.24336911762066" y2="295.00458542374713" transform="rotate(-30.00072778082742) translate(0, 3) rotate(30.00072778082742) " style="stroke-width: 3; stroke: #909090;"></line></g><g><line x1="227.47298196399993" x2="246.93855532178884" y1="418.6312060563558" y2="429.86998975022925" transform="rotate(30.00072778082736) translate(0, -3) rotate(-30.00072778082736) " style="stroke: #FF0D0D; stroke-width: 3; stroke-linecap: butt;"></line><line x1="227.47298196399993" x2="246.93855532178884" y1="418.6312060563558" y2="429.86998975022925" transform="rotate(30.00072778082736) translate(0, 3) rotate(-30.00072778082736) " style="stroke: #FF0D0D; stroke-width: 3; stroke-linecap: butt;"></line><line x1="266.40412867957775" x2="246.93855532178884" y1="441.1087734441028" y2="429.86998975022925" transform="rotate(30.00072778082736) translate(0, -3) rotate(-30.00072778082736) " style="stroke-width: 3; stroke: #909090;"></line><line x1="266.40412867957775" x2="246.93855532178884" y1="441.1087734441028" y2="429.86998975022925" transform="rotate(30.00072778082736) translate(0, 3) rotate(-30.00072778082736) " style="stroke-width: 3; stroke: #909090;"></line></g><g><line x1="305.3352753951556" x2="324.8030965096833" y1="373.6760712808617" y2="362.4372875869882" transform="" style="stroke: #3050F8; stroke-width: 3; stroke-linecap: butt;"></line><line x1="344.270917624211" x2="324.8030965096833" y1="351.19850389311466" y2="362.4372875869882" transform="" style="stroke-width: 3; stroke: #909090;"></line></g><g><line x1="305.3352753951556" x2="285.86970203736666" y1="373.6760712808617" y2="362.4372875869882" transform="" style="stroke: #3050F8; stroke-width: 3; stroke-linecap: butt;"></line><line x1="266.40412867957775" x2="285.86970203736666" y1="351.19850389311466" y2="362.4372875869882" transform="" style="stroke-width: 3; stroke: #909090;"></line></g><g><line x1="305.3352753951556" x2="305.3352753951556" y1="373.6760712808617" y2="396.1536386686088" transform="" style="stroke: #3050F8; stroke-width: 3; stroke-linecap: butt;"></line><line x1="305.3352753951556" x2="305.3352753951556" y1="418.6312060563558" y2="396.1536386686088" transform="" style="stroke-width: 3; stroke: #909090;"></line></g><g><line x1="422.1332110553667" x2="402.6676376975778" y1="351.19850389311466" y2="362.4372875869882" transform="" style="stroke: #3050F8; stroke-width: 3; stroke-linecap: butt;"></line><line x1="383.2020643397889" x2="402.6676376975778" y1="373.6760712808617" y2="362.4372875869882" transform="" style="stroke-width: 3; stroke: #909090;"></line></g><g><line x1="422.1332110553667" x2="441.60103216989444" y1="351.19850389311466" y2="362.4372875869882" transform="" style="stroke: #3050F8; stroke-width: 3; stroke-linecap: butt;"></line><line x1="461.0688532844221" x2="441.60103216989444" y1="373.6760712808617" y2="362.4372875869882" transform="" style="stroke-width: 3; stroke: #909090;"></line></g><g><line x1="422.1332110553667" x2="422.1332110553667" y1="351.19850389311466" y2="328.72093650536766" transform="" style="stroke: #3050F8; stroke-width: 3; stroke-linecap: butt;"></line><line x1="422.1332110553667" x2="422.1332110553667" y1="306.24336911762066" y2="328.72093650536766" transform="" style="stroke-width: 3; stroke: #909090;"></line></g><g><line x1="383.2020643397889" x2="363.73649098199996" y1="373.6760712808617" y2="362.4372875869882" transform="" style="stroke: #909090; stroke-width: 3; stroke-linecap: butt;"></line><line x1="344.270917624211" x2="363.73649098199996" y1="351.19850389311466" y2="362.4372875869882" transform="" style="stroke-width: 3; stroke: #909090;"></line></g><g><line x1="461.0688532844221" x2="461.0688532844221" y1="373.6760712808617" y2="396.1536386686088" transform="" style="stroke: #909090; stroke-width: 3; stroke-linecap: butt;"></line><line x1="461.0688532844221" x2="461.0688532844221" y1="418.6312060563558" y2="396.1536386686088" transform="" style="stroke-width: 3; stroke: #909090;"></line></g><g><line x1="422.1332110553667" x2="441.60103216989444" y1="306.24336911762066" y2="295.00458542374713" transform="" style="stroke: #909090; stroke-width: 3; stroke-linecap: butt;"></line><line x1="461.0688532844221" x2="441.60103216989444" y1="283.7658017298736" y2="295.00458542374713" transform="" style="stroke-width: 3; stroke: #909090;"></line></g><g><line x1="266.40412867957775" x2="266.40412867957775" y1="351.19850389311466" y2="328.72093650536766" transform="" style="stroke: #909090; stroke-width: 3; stroke-linecap: butt;"></line><line x1="266.40412867957775" x2="266.40412867957775" y1="306.24336911762066" y2="328.72093650536766" transform="" style="stroke-width: 3; stroke: #909090;"></line></g><g><line x1="305.3352753951556" x2="285.86970203736666" y1="418.6312060563558" y2="429.86998975022925" transform="" style="stroke: #909090; stroke-width: 3; stroke-linecap: butt;"></line><line x1="266.40412867957775" x2="285.86970203736666" y1="441.1087734441028" y2="429.86998975022925" transform="" style="stroke-width: 3; stroke: #909090;"></line></g><g class="atom" transform="translate(461.0688532844221, 238.81066695437954) "><circle r="8" style="fill: #FF0D0D;"></circle></g><g class="atom" transform="translate(227.47298196399993, 283.7658017298736) "><circle r="8" style="fill: #FF0D0D;"></circle></g><g class="atom" transform="translate(266.40412867957775, 486.06390821959684) "><circle r="8" style="fill: #FF0D0D;"></circle></g><g class="atom" transform="translate(500, 441.1087734441028) "><circle r="8" style="fill: #FF0D0D;"></circle></g><g class="atom" transform="translate(422.1332110553667, 441.1087734441028) "><circle r="8" style="fill: #FF0D0D;"></circle></g><g class="atom" transform="translate(500, 306.24336911762066) "><circle r="8" style="fill: #FF0D0D;"></circle></g><g class="atom" transform="translate(305.3352753951556, 283.7658017298736) "><circle r="8" style="fill: #FF0D0D;"></circle></g><g class="atom" transform="translate(227.47298196399993, 418.6312060563558) "><circle r="8" style="fill: #FF0D0D;"></circle></g><g class="atom" transform="translate(305.3352753951556, 373.6760712808617) "><circle r="8" style="fill: #3050F8;"></circle></g><g class="atom" transform="translate(422.1332110553667, 351.19850389311466) "><circle r="8" style="fill: #3050F8;"></circle></g><g class="atom" transform="translate(500, 468.9809570049091) "><circle r="8" style="fill: #FFFFFF;"></circle></g><g class="atom" transform="translate(485.2052651453849, 224.87457517397638) "><circle r="8" style="fill: #FFFFFF;"></circle></g><g class="atom" transform="translate(227.47298196399993, 255.8936181690673) "><circle r="8" style="fill: #FFFFFF;"></circle></g><g class="atom" transform="translate(242.267716818615, 500) "><circle r="8" style="fill: #FFFFFF;"></circle></g></g></svg>