<svg xmlns="http://www.w3.org/2000/svg" version="1.1" width="500" height="500"><rect width="500" height="500" style="fill: #dddddd;"></rect><g transform="translate(-123.90950092178036, -84.48281538056358) "><g><line x1="354.73317750855944" x2="354.73317750855944" y1="354.1447195154069" y2="374.720173821438" transform="" style="stroke: #FFFF30; stroke-width: 3; stroke-linecap: butt;"></line><line x1="354.73317750855944" x2="354.73317750855944" y1="395.29562812746906" y2="374.720173821438" transform="" style="stroke-width: 3; stroke: #FF0D0D;"></line></g><g><line x1="354.73317750855944" x2="334.15772320252836" y1="354.1447195154069" y2="354.1447195154069" transform="rotate(0) translate(0, -3) rotate(0) " style="stroke: #FFFF30; stroke-width: 3; stroke-linecap: butt;"></line><line x1="354.73317750855944" x2="334.15772320252836" y1="354.1447195154069" y2="354.1447195154069" transform="rotate(0) translate(0, 3) rotate(0) " style="stroke: #FFFF30; stroke-width: 3; stroke-linecap: butt;"></line><line x1="313.5822688964973" x2="334.15772320252836" y1="354.1447195154069" y2="354.1447195154069" transform="rotate(0) translate(0, -3) rotate(0) " style="stroke-width: 3; stroke: #FF0D0D;"></line><line x1="313.5822688964973" x2="334.15772320252836" y1="354.1447195154069" y2="354.1447195154069" transform="rotate(0) translate(0, 3) rotate(0) " style="stroke-width: 3; stroke: #FF0D0D;"></line></g><g><line x1="354.73317750855944" x2="375.3086318145905" y1="354.1447195154069" y2="354.1447195154069" transform="rotate(0) translate(0, -3) rotate(0) " style="stroke: #FFFF30; stroke-width: 3; stroke-linecap: butt;"></line><line x1="354.73317750855944" x2="375.3086318145905" y1="354.1447195154069" y2="354.1447195154069" transform="rotate(0) translate(0, 3) rotate(0) " style="stroke: #FFFF30; stroke-width: 3; stroke-linecap: butt;"></line><line x1="395.8840861206216" x2="375.3086318145905" y1="354.1447195154069" y2="354.1447195154069" transform="rotate(0) translate(0, -3) rotate(0) " style="stroke-width: 3; stroke: #FF0D0D;"></line><line x1="395.8840861206216" x2="375.3086318145905" y1="354.1447195154069" y2="354.1447195154069" transform="rotate(0) translate(0, 3) rotate(0) " style="stroke-width: 3; stroke: #FF0D0D;"></line></g><g><line x1="354.73317750855944" x2="354.73317750855944" y1="312.99381090334475" y2="333.5692652093758" transform="" style="stroke: #909090; stroke-width: 3; stroke-linecap: butt;"></line><line x1="354.73317750855944" x2="354.73317750855944" y1="354.1447195154069" y2="333.5692652093758" transform="" style="stroke-width: 3; stroke: #FFFF30;"></line></g><g><line x1="283.45568870160656" x2="265.6373452725836" y1="230.69199367922045" y2="220.4042665262049" transform="" style="stroke: #FFFF30; stroke-width: 3; stroke-linecap: butt;"></line><line x1="247.8190018435607" x2="265.6373452725836" y1="210.11653937318937" y2="220.4042665262049" transform="" style="stroke-width: 3; stroke: #FF0D0D;"></line></g><g><line x1="283.45568870160656" x2="293.74341585462207" y1="230.69199367922045" y2="212.87365025019753" transform="rotate(-59.99927221917264) translate(0, -3) rotate(59.99927221917264) " style="stroke: #FFFF30; stroke-width: 3; stroke-linecap: butt;"></line><line x1="283.45568870160656" x2="293.74341585462207" y1="230.69199367922045" y2="212.87365025019753" transform="rotate(-59.99927221917264) translate(0, 3) rotate(59.99927221917264) " style="stroke: #FFFF30; stroke-width: 3; stroke-linecap: butt;"></line><line x1="304.03114300763764" x2="293.74341585462207" y1="195.0553068211746" y2="212.87365025019753" transform="rotate(-59.99927221917264) translate(0, -3) rotate(59.99927221917264) " style="stroke-width: 3; stroke: #FF0D0D;"></line><line x1="304.03114300763764" x2="293.74341585462207" y1="195.0553068211746" y2="212.87365025019753" transform="rotate(-59.99927221917264) translate(0, 3) rotate(59.99927221917264) " style="stroke-width: 3; stroke: #FF0D0D;"></line></g><g><line x1="283.45568870160656" x2="273.167961548591" y1="230.69199367922045" y2="248.51033710824333" transform="rotate(-59.99927221917252) translate(0, -3) rotate(59.99927221917252) " style="stroke: #FFFF30; stroke-width: 3; stroke-linecap: butt;"></line><line x1="283.45568870160656" x2="273.167961548591" y1="230.69199367922045" y2="248.51033710824333" transform="rotate(-59.99927221917252) translate(0, 3) rotate(59.99927221917252) " style="stroke: #FFFF30; stroke-width: 3; stroke-linecap: butt;"></line><line x1="262.8802343955754" x2="273.167961548591" y1="266.3286805372662" y2="248.51033710824333" transform="rotate(-59.99927221917252) translate(0, -3) rotate(59.99927221917252) " style="stroke-width: 3; stroke: #FF0D0D;"></line><line x1="262.8802343955754" x2="273.167961548591" y1="266.3286805372662" y2="248.51033710824333" transform="rotate(-59.99927221917252) translate(0, 3) rotate(59.99927221917252) " style="stroke-width: 3; stroke: #FF0D0D;"></line></g><g><line x1="319.09237555965234" x2="301.27403213062945" y1="251.26744798525152" y2="240.97972083223598" transform="" style="stroke: #909090; stroke-width: 3; stroke-linecap: butt;"></line><line x1="283.45568870160656" x2="301.27403213062945" y1="230.69199367922045" y2="240.97972083223598" transform="" style="stroke-width: 3; stroke: #FFFF30;"></line></g><g><line x1="464.4414998683171" x2="482.22074993415856" y1="293.27429549644455" y2="303.6319791941006" transform="rotate(30.223856971391708) translate(0, -3) rotate(-30.223856971391708) " style="stroke: #909090; stroke-width: 3; stroke-linecap: butt;"></line><line x1="464.4414998683171" x2="482.22074993415856" y1="293.27429549644455" y2="303.6319791941006" transform="rotate(30.223856971391708) translate(0, 3) rotate(-30.223856971391708) " style="stroke: #909090; stroke-width: 3; stroke-linecap: butt;"></line><line x1="500" x2="482.22074993415856" y1="313.98966289175667" y2="303.6319791941006" transform="rotate(30.223856971391708) translate(0, -3) rotate(-30.223856971391708) " style="stroke-width: 3; stroke: #FF0D0D;"></line><line x1="500" x2="482.22074993415856" y1="313.98966289175667" y2="303.6319791941006" transform="rotate(30.223856971391708) translate(0, 3) rotate(-30.223856971391708) " style="stroke-width: 3; stroke: #FF0D0D;"></line></g><g><line x1="426.6814261258889" x2="444.3804319199368" y1="355.5685409533843" y2="366.0620226494601" transform="" style="stroke: #3050F8; stroke-width: 3; stroke-linecap: butt;"></line><line x1="462.07943771398476" x2="444.3804319199368" y1="376.55550434553595" y2="366.0620226494601" transform="" style="stroke-width: 3; stroke: #3050F8;"></line></g><g><line x1="426.6814261258889" x2="426.91804385040825" y1="355.5685409533843" y2="334.9951441927838" transform="rotate(-89.34106169184632) translate(0, -3) rotate(89.34106169184632) " style="stroke: #3050F8; stroke-width: 3; stroke-linecap: butt;"></line><line x1="426.6814261258889" x2="426.91804385040825" y1="355.5685409533843" y2="334.9951441927838" transform="rotate(-89.34106169184632) translate(0, 3) rotate(89.34106169184632) " style="stroke: #3050F8; stroke-width: 3; stroke-linecap: butt;"></line><line x1="427.15466157492756" x2="426.91804385040825" y1="314.42174743218334" y2="334.9951441927838" transform="rotate(-89.34106169184632) translate(0, -3) rotate(89.34106169184632) " style="stroke-width: 3; stroke: #909090;"></line><line x1="427.15466157492756" x2="426.91804385040825" y1="314.42174743218334" y2="334.9951441927838" transform="rotate(-89.34106169184632) translate(0, 3) rotate(89.34106169184632) " style="stroke-width: 3; stroke: #909090;"></line></g><g><line x1="461.6020871740848" x2="461.8407624440348" y1="417.7022978667369" y2="397.1289011061364" transform="" style="stroke: #909090; stroke-width: 3; stroke-linecap: butt;"></line><line x1="462.07943771398476" x2="461.8407624440348" y1="376.55550434553595" y2="397.1289011061364" transform="" style="stroke-width: 3; stroke: #3050F8;"></line></g><g><line x1="462.07943771398476" x2="473.2004707663946" y1="376.55550434553595" y2="370.3046813273637" transform="" style="stroke: #3050F8; stroke-width: 3; stroke-linecap: butt;"></line><line x1="484.3215038188044" x2="473.2004707663946" y1="364.05385830919147" y2="370.3046813273637" transform="" style="stroke-width: 3; stroke: #FFFFFF;"></line></g><g><line x1="390.36986436660527" x2="390.36986436660527" y1="251.26744798525152" y2="271.8429022912826" transform="" style="stroke: #909090; stroke-width: 3; stroke-linecap: round;"></line><line x1="390.36986436660527" x2="390.36986436660527" y1="251.26744798525152" y2="271.8429022912826" transform="rotate(90,390.36986436660527,271.8429022912826)translate(0, -6) rotate(-90,390.36986436660527,271.8429022912826)translate(78.07397287332104, 54.36858045825651) scale(0.8)" style="stroke: #909090; stroke-width: 3; stroke-linecap: butt;"></line><line x1="390.36986436660527" x2="390.36986436660527" y1="292.4183565973137" y2="271.8429022912826" transform="" style="stroke-width: 3; stroke: #909090;"></line><line x1="390.36986436660527" x2="390.36986436660527" y1="292.4183565973137" y2="271.8429022912826" transform="rotate(90,390.36986436660527,271.8429022912826)translate(0, -6) rotate(-90,390.36986436660527,271.8429022912826)translate(78.07397287332104, 54.36858045825651) scale(0.8)" style="stroke-width: 3; stroke: #909090;"></line></g><g><line x1="390.36986436660527" x2="372.5515209375824" y1="292.4183565973137" y2="302.7060837503292" transform="" style="stroke: #909090; stroke-width: 3; stroke-linecap: round;"></line><line x1="354.73317750855944" x2="372.5515209375824" y1="312.99381090334475" y2="302.7060837503292" transform="" style="stroke-width: 3; stroke: #909090;"></line></g><g><line x1="390.36986436660527" x2="408.7622629707664" y1="292.4183565973137" y2="303.42005201474853" transform="" style="stroke: #909090; stroke-width: 3; stroke-linecap: round;"></line><line x1="427.15466157492756" x2="408.7622629707664" y1="314.42174743218334" y2="303.42005201474853" transform="" style="stroke-width: 3; stroke: #909090;"></line></g><g><line x1="390.36986436660527" x2="372.5515209375824" y1="251.26744798525152" y2="240.97972083223598" transform="" style="stroke: #909090; stroke-width: 3; stroke-linecap: round;"></line><line x1="354.73317750855944" x2="372.5515209375824" y1="230.69199367922045" y2="240.97972083223598" transform="" style="stroke-width: 3; stroke: #909090;"></line></g><g><line x1="427.15466157492756" x2="408.7622629707664" y1="229.26817224124306" y2="240.2678101132473" transform="" style="stroke: #909090; stroke-width: 3; stroke-linecap: round;"></line><line x1="390.36986436660527" x2="408.7622629707664" y1="251.26744798525152" y2="240.2678101132473" transform="" style="stroke-width: 3; stroke: #909090;"></line></g><g><line x1="319.09237555965234" x2="336.9127765341059" y1="292.4183565973137" y2="302.7060837503292" transform="" style="stroke: #909090; stroke-width: 3; stroke-linecap: round;"></line><line x1="319.09237555965234" x2="336.9127765341059" y1="292.4183565973137" y2="302.7060837503292" transform="rotate(29.997863113888872,336.9127765341059,302.7060837503292)translate(0, -6) rotate(-29.997863113888872,336.9127765341059,302.7060837503292)translate(67.38255530682116, 60.54121675006582) scale(0.8)" style="stroke: #909090; stroke-width: 3; stroke-linecap: butt;"></line><line x1="354.73317750855944" x2="336.9127765341059" y1="312.99381090334475" y2="302.7060837503292" transform="" style="stroke-width: 3; stroke: #909090;"></line><line x1="354.73317750855944" x2="336.9127765341059" y1="312.99381090334475" y2="302.7060837503292" transform="rotate(29.997863113888872,336.9127765341059,302.7060837503292)translate(0, -6) rotate(-29.997863113888872,336.9127765341059,302.7060837503292)translate(67.38255530682116, 60.54121675006582) scale(0.8)" style="stroke-width: 3; stroke: #909090;"></line></g><g><line x1="354.73317750855944" x2="336.9127765341059" y1="230.69199367922045" y2="240.97972083223598" transform="" style="stroke: #909090; stroke-width: 3; stroke-linecap: round;"></line><line x1="354.73317750855944" x2="336.9127765341059" y1="230.69199367922045" y2="240.97972083223598" transform="rotate(-29.997863113888872,336.9127765341059,240.97972083223598)translate(0, 6) rotate(29.997863113888872,336.9127765341059,240.97972083223598)translate(67.38255530682116, 48.195944166447184) scale(0.8)" style="stroke: #909090; stroke-width: 3; stroke-linecap: butt;"></line><line x1="319.09237555965234" x2="336.9127765341059" y1="251.26744798525152" y2="240.97972083223598" transform="" style="stroke-width: 3; stroke: #909090;"></line><line x1="319.09237555965234" x2="336.9127765341059" y1="251.26744798525152" y2="240.97972083223598" transform="rotate(-29.997863113888872,336.9127765341059,240.97972083223598)translate(0, 6) rotate(29.997863113888872,336.9127765341059,240.97972083223598)translate(67.38255530682116, 48.195944166447184) scale(0.8)" style="stroke-width: 3; stroke: #909090;"></line></g><g><line x1="319.09237555965234" x2="319.09237555965234" y1="251.26744798525152" y2="271.8429022912826" transform="" style="stroke: #909090; stroke-width: 3; stroke-linecap: round;"></line><line x1="319.09237555965234" x2="319.09237555965234" y1="292.4183565973137" y2="271.8429022912826" transform="" style="stroke-width: 3; stroke: #909090;"></line></g><g><line x1="427.15466157492756" x2="445.79808072162234" y1="314.42174743218334" y2="303.84802146431394" transform="" style="stroke: #909090; stroke-width: 3; stroke-linecap: round;"></line><line x1="464.4414998683171" x2="445.79808072162234" y1="293.27429549644455" y2="303.84802146431394" transform="" style="stroke-width: 3; stroke: #909090;"></line></g><g><line x1="464.4414998683171" x2="445.79808072162234" y1="250.41150908612062" y2="239.83984066368185" transform="" style="stroke: #909090; stroke-width: 3; stroke-linecap: round;"></line><line x1="464.4414998683171" x2="445.79808072162234" y1="250.41150908612062" y2="239.83984066368185" transform="rotate(29.555212825988136,445.79808072162234,239.83984066368185)translate(0, 6) rotate(-29.555212825988136,445.79808072162234,239.83984066368185)translate(89.15961614432445, 47.96796813273636) scale(0.8)" style="stroke: #909090; stroke-width: 3; stroke-linecap: butt;"></line><line x1="427.15466157492756" x2="445.79808072162234" y1="229.26817224124306" y2="239.83984066368185" transform="" style="stroke-width: 3; stroke: #909090;"></line><line x1="427.15466157492756" x2="445.79808072162234" y1="229.26817224124306" y2="239.83984066368185" transform="rotate(29.555212825988136,445.79808072162234,239.83984066368185)translate(0, 6) rotate(-29.555212825988136,445.79808072162234,239.83984066368185)translate(89.15961614432445, 47.96796813273636) scale(0.8)" style="stroke-width: 3; stroke: #909090;"></line></g><g><line x1="464.4414998683171" x2="464.4414998683171" y1="293.27429549644455" y2="271.8429022912826" transform="" style="stroke: #909090; stroke-width: 3; stroke-linecap: round;"></line><line x1="464.4414998683171" x2="464.4414998683171" y1="250.41150908612062" y2="271.8429022912826" transform="" style="stroke-width: 3; stroke: #909090;"></line></g><g><line x1="461.6020871740848" x2="443.6644061100869" y1="417.7022978667369" y2="427.78427047669214" transform="" style="stroke: #909090; stroke-width: 3; stroke-linecap: round;"></line><line x1="461.6020871740848" x2="443.6644061100869" y1="417.7022978667369" y2="427.78427047669214" transform="rotate(-29.338404030869164,443.6644061100869,427.78427047669214)translate(0, 6) rotate(29.338404030869164,443.6644061100869,427.78427047669214)translate(88.73288122201735, 85.55685409533841) scale(0.8)" style="stroke: #909090; stroke-width: 3; stroke-linecap: butt;"></line><line x1="425.726725046089" x2="443.6644061100869" y1="437.8662430866474" y2="427.78427047669214" transform="" style="stroke-width: 3; stroke: #909090;"></line><line x1="425.726725046089" x2="443.6644061100869" y1="437.8662430866474" y2="427.78427047669214" transform="rotate(-29.338404030869164,443.6644061100869,427.78427047669214)translate(0, 6) rotate(29.338404030869164,443.6644061100869,427.78427047669214)translate(88.73288122201735, 85.55685409533841) scale(0.8)" style="stroke-width: 3; stroke: #909090;"></line></g><g><line x1="497.0000987621807" x2="479.3010929681327" y1="438.6892612588886" y2="428.19577956281273" transform="" style="stroke: #909090; stroke-width: 3; stroke-linecap: round;"></line><line x1="461.6020871740848" x2="479.3010929681327" y1="417.7022978667369" y2="428.19577956281273" transform="" style="stroke-width: 3; stroke: #909090;"></line></g><g><line x1="425.726725046089" x2="425.49010732156967" y1="437.8662430866474" y2="458.43963984724786" transform="" style="stroke: #909090; stroke-width: 3; stroke-linecap: round;"></line><line x1="425.2534895970503" x2="425.49010732156967" y1="479.01303660784833" y2="458.43963984724786" transform="" style="stroke-width: 3; stroke: #909090;"></line></g><g><line x1="496.52274822228077" x2="496.76142349223073" y1="479.83605478008957" y2="459.2626580194891" transform="" style="stroke: #909090; stroke-width: 3; stroke-linecap: round;"></line><line x1="496.52274822228077" x2="496.76142349223073" y1="479.83605478008957" y2="459.2626580194891" transform="rotate(-89.335332305352,496.76142349223073,459.2626580194891)translate(0, -6) rotate(89.335332305352,496.76142349223073,459.2626580194891)translate(99.35228469844613, 91.8525316038978) scale(0.8)" style="stroke: #909090; stroke-width: 3; stroke-linecap: butt;"></line><line x1="497.0000987621807" x2="496.76142349223073" y1="438.6892612588886" y2="459.2626580194891" transform="" style="stroke-width: 3; stroke: #909090;"></line><line x1="497.0000987621807" x2="496.76142349223073" y1="438.6892612588886" y2="459.2626580194891" transform="rotate(-89.335332305352,496.76142349223073,459.2626580194891)translate(0, -6) rotate(89.335332305352,496.76142349223073,459.2626580194891)translate(99.35228469844613, 91.8525316038978) scale(0.8)" style="stroke-width: 3; stroke: #909090;"></line></g><g><line x1="425.2534895970503" x2="442.9524953910982" y1="479.01303660784833" y2="489.50651830392417" transform="" style="stroke: #909090; stroke-width: 3; stroke-linecap: round;"></line><line x1="425.2534895970503" x2="442.9524953910982" y1="479.01303660784833" y2="489.50651830392417" transform="rotate(30.663081732075405,442.9524953910982,489.50651830392417)translate(0, -6) rotate(-30.663081732075405,442.9524953910982,489.50651830392417)translate(88.59049907821962, 97.9013036607848) scale(0.8)" style="stroke: #909090; stroke-width: 3; stroke-linecap: butt;"></line><line x1="460.6515011851461" x2="442.9524953910982" y1="500" y2="489.50651830392417" transform="" style="stroke-width: 3; stroke: #909090;"></line><line x1="460.6515011851461" x2="442.9524953910982" y1="500" y2="489.50651830392417" transform="rotate(30.663081732075405,442.9524953910982,489.50651830392417)translate(0, -6) rotate(-30.663081732075405,442.9524953910982,489.50651830392417)translate(88.59049907821962, 97.9013036607848) scale(0.8)" style="stroke-width: 3; stroke: #909090;"></line></g><g><line x1="460.6515011851461" x2="478.58712470371347" y1="500" y2="489.9180273900448" transform="" style="stroke: #909090; stroke-width: 3; stroke-linecap: round;"></line><line x1="496.52274822228077" x2="478.58712470371347" y1="479.83605478008957" y2="489.9180273900448" transform="" style="stroke-width: 3; stroke: #909090;"></line></g><g class="atom" transform="translate(354.73317750855944, 354.1447195154069) "><circle r="8" style="fill: #FFFF30;"></circle></g><g class="atom" transform="translate(283.45568870160656, 230.69199367922045) "><circle r="8" style="fill: #FFFF30;"></circle></g><g class="atom" transform="translate(319.09237555965234, 415.87108243350013) "><circle r="8" style="fill: #AB5CF2;"></circle></g><g class="atom" transform="translate(247.8190018435607, 168.96563076112722) "><circle r="8" style="fill: #AB5CF2;"></circle></g><g class="atom" transform="translate(354.73317750855944, 395.29562812746906) "><circle r="8" style="fill: #FF0D0D;"></circle></g><g class="atom" transform="translate(313.5822688964973, 354.1447195154069) "><circle r="8" style="fill: #FF0D0D;"></circle></g><g class="atom" transform="translate(395.8840861206216, 354.1447195154069) "><circle r="8" style="fill: #FF0D0D;"></circle></g><g class="atom" transform="translate(500, 313.98966289175667) "><circle r="8" style="fill: #FF0D0D;"></circle></g><g class="atom" transform="translate(247.8190018435607, 210.11653937318937) "><circle r="8" style="fill: #FF0D0D;"></circle></g><g class="atom" transform="translate(304.03114300763764, 195.0553068211746) "><circle r="8" style="fill: #FF0D0D;"></circle></g><g class="atom" transform="translate(262.8802343955754, 266.3286805372662) "><circle r="8" style="fill: #FF0D0D;"></circle></g><g class="atom" transform="translate(426.6814261258889, 355.5685409533843) "><circle r="8" style="fill: #3050F8;"></circle></g><g class="atom" transform="translate(462.07943771398476, 376.55550434553595) "><circle r="8" style="fill: #3050F8;"></circle></g><g class="atom" transform="translate(484.3215038188044, 364.05385830919147) "><circle r="8" style="fill: #FFFFFF;"></circle></g></g></svg>