<svg xmlns="http://www.w3.org/2000/svg" version="1.1" width="500" height="500"><rect width="500" height="500" style="fill: #dddddd;"></rect><g transform="translate(-134.39743105402346, -107.13386223397555) "><g><line x1="325.65168114847" x2="341.39277169122283" y1="302.60672459387985" y2="275.343155773832" transform="" style="stroke: #909090; stroke-width: 3; stroke-linecap: butt;"></line><line x1="357.13386223397566" x2="341.39277169122283" y1="248.07958695378412" y2="275.343155773832" transform="" style="stroke-width: 3; stroke: #FF0D0D;"></line></g><g><line x1="337.6149099609621" x2="347.3743860974689" y1="214.2677244679511" y2="231.1736557108676" transform="" style="stroke: #FFFFFF; stroke-width: 3; stroke-linecap: butt;"></line><line x1="357.13386223397566" x2="347.3743860974689" y1="248.07958695378412" y2="231.1736557108676" transform="" style="stroke-width: 3; stroke: #FF0D0D;"></line></g><g><line x1="357.13386223397566" x2="372.8749527767285" y1="466.18813751416695" y2="438.9245686941191" transform="" style="stroke: #FF0D0D; stroke-width: 3; stroke-linecap: butt;"></line><line x1="388.61604331948126" x2="372.8749527767285" y1="411.6609998740713" y2="438.9245686941191" transform="" style="stroke-width: 3; stroke: #909090;"></line></g><g><line x1="376.65281450698905" x2="366.89333837048235" y1="500" y2="483.0940687570835" transform="" style="stroke: #FFFFFF; stroke-width: 3; stroke-linecap: butt;"></line><line x1="357.13386223397566" x2="366.89333837048235" y1="466.18813751416695" y2="483.0940687570835" transform="" style="stroke-width: 3; stroke: #FF0D0D;"></line></g><g><line x1="411.6609998740713" x2="438.92456869411916" y1="325.65168114846995" y2="341.3927716912227" transform="" style="stroke: #909090; stroke-width: 3; stroke-linecap: butt;"></line><line x1="466.188137514167" x2="438.92456869411916" y1="357.13386223397555" y2="341.3927716912227" transform="" style="stroke-width: 3; stroke: #FF0D0D;"></line></g><g><line x1="466.188137514167" x2="483.0940687570835" y1="357.13386223397555" y2="347.3743860974688" transform="" style="stroke: #FF0D0D; stroke-width: 3; stroke-linecap: butt;"></line><line x1="500" x2="483.0940687570835" y1="337.6149099609621" y2="347.3743860974688" transform="" style="stroke-width: 3; stroke: #FFFFFF;"></line></g><g><line x1="302.6004281576628" x2="329.86714519581926" y1="388.61604331948115" y2="372.8749527767284" transform="" style="stroke: #3050F8; stroke-width: 3; stroke-linecap: butt;"></line><line x1="357.13386223397566" x2="329.86714519581926" y1="357.13386223397555" y2="372.8749527767284" transform="" style="stroke-width: 3; stroke: #909090;"></line></g><g><line x1="302.6004281576628" x2="285.69764513285486" y1="388.61604331948115" y2="378.8565671829744" transform="" style="stroke: #3050F8; stroke-width: 3; stroke-linecap: butt;"></line><line x1="268.79486210804686" x2="285.69764513285486" y1="369.09709104646765" y2="378.8565671829744" transform="" style="stroke-width: 3; stroke: #FFFFFF;"></line></g><g><line x1="302.6004281576628" x2="302.6004281576628" y1="427.65394786550814" y2="408.13499559249465" transform="" style="stroke: #FFFFFF; stroke-width: 3; stroke-linecap: butt;"></line><line x1="302.6004281576628" x2="302.6004281576628" y1="388.61604331948115" y2="408.13499559249465" transform="" style="stroke-width: 3; stroke: #3050F8;"></line></g><g><line x1="411.6609998740713" x2="384.3974310540235" y1="325.65168114846995" y2="341.3927716912227" transform="" style="stroke: #909090; stroke-width: 3; stroke-linecap: butt;"></line><line x1="357.13386223397566" x2="384.3974310540235" y1="357.13386223397555" y2="341.3927716912227" transform="" style="stroke-width: 3; stroke: #909090;"></line></g><g><line x1="357.13386223397566" x2="341.39277169122283" y1="357.13386223397555" y2="329.8702934139277" transform="" style="stroke: #909090; stroke-width: 3; stroke-linecap: round;"></line><line x1="325.65168114847" x2="341.39277169122283" y1="302.60672459387985" y2="329.8702934139277" transform="" style="stroke-width: 3; stroke: #909090;"></line></g><g><line x1="388.61604331948126" x2="372.8749527767285" y1="411.6609998740713" y2="384.3974310540234" transform="" style="stroke: #909090; stroke-width: 3; stroke-linecap: round;"></line><line x1="357.13386223397566" x2="372.8749527767285" y1="357.13386223397555" y2="384.3974310540234" transform="" style="stroke-width: 3; stroke: #909090;"></line></g><g class="atom" transform="translate(357.13386223397566, 248.07958695378412) "><circle r="8" style="fill: #FF0D0D;"></circle></g><g class="atom" transform="translate(357.13386223397566, 466.18813751416695) "><circle r="8" style="fill: #FF0D0D;"></circle></g><g class="atom" transform="translate(466.188137514167, 357.13386223397555) "><circle r="8" style="fill: #FF0D0D;"></circle></g><g class="atom" transform="translate(302.6004281576628, 388.61604331948115) "><circle r="8" style="fill: #3050F8;"></circle></g><g class="atom" transform="translate(268.79486210804686, 369.09709104646765) "><circle r="8" style="fill: #FFFFFF;"></circle></g><g class="atom" transform="translate(302.6004281576628, 427.65394786550814) "><circle r="8" style="fill: #FFFFFF;"></circle></g><g class="atom" transform="translate(337.6149099609621, 214.2677244679511) "><circle r="8" style="fill: #FFFFFF;"></circle></g><g class="atom" transform="translate(376.65281450698905, 500) "><circle r="8" style="fill: #FFFFFF;"></circle></g><g class="atom" transform="translate(500, 337.6149099609621) "><circle r="8" style="fill: #FFFFFF;"></circle></g></g></svg>