<svg xmlns="http://www.w3.org/2000/svg" version="1.1" width="500" height="500"><rect width="500" height="500" style="fill: #dddddd;"></rect><g transform="translate(-107.96718668816033, -100.67811513302513) "><g><line x1="288.3488096348303" x2="291.2414569483486" y1="400.11790410466153" y2="383.7179094336606" transform="" style="stroke: #FF0D0D; stroke-width: 3; stroke-linecap: butt;"></line><line x1="294.134104261867" x2="291.2414569483486" y1="367.3179147626597" y2="383.7179094336606" transform="" style="stroke-width: 3; stroke: #FFFF30;"></line></g><g><line x1="261.3341149198652" x2="277.73410959086607" y1="361.5359507600485" y2="364.4269327613541" transform="rotate(9.99735865418831) translate(0, -3) rotate(-9.99735865418831) " style="stroke: #FF0D0D; stroke-width: 3; stroke-linecap: butt;"></line><line x1="261.3341149198652" x2="277.73410959086607" y1="361.5359507600485" y2="364.4269327613541" transform="rotate(9.99735865418831) translate(0, 3) rotate(-9.99735865418831) " style="stroke: #FF0D0D; stroke-width: 3; stroke-linecap: butt;"></line><line x1="294.134104261867" x2="277.73410959086607" y1="367.3179147626597" y2="364.4269327613541" transform="rotate(9.99735865418831) translate(0, -3) rotate(-9.99735865418831) " style="stroke-width: 3; stroke: #FFFF30;"></line><line x1="294.134104261867" x2="277.73410959086607" y1="367.3179147626597" y2="364.4269327613541" transform="rotate(9.99735865418831) translate(0, 3) rotate(-9.99735865418831) " style="stroke-width: 3; stroke: #FFFF30;"></line></g><g><line x1="294.134104261867" x2="297.02675157538533" y1="367.3179147626597" y2="350.9179200916588" transform="rotate(-79.99699877485625) translate(0, -3) rotate(79.99699877485625) " style="stroke: #FFFF30; stroke-width: 3; stroke-linecap: butt;"></line><line x1="294.134104261867" x2="297.02675157538533" y1="367.3179147626597" y2="350.9179200916588" transform="rotate(-79.99699877485625) translate(0, 3) rotate(79.99699877485625) " style="stroke: #FFFF30; stroke-width: 3; stroke-linecap: butt;"></line><line x1="299.9193988889037" x2="297.02675157538533" y1="334.5179254206579" y2="350.9179200916588" transform="rotate(-79.99699877485625) translate(0, -3) rotate(79.99699877485625) " style="stroke-width: 3; stroke: #FF0D0D;"></line><line x1="299.9193988889037" x2="297.02675157538533" y1="334.5179254206579" y2="350.9179200916588" transform="rotate(-79.99699877485625) translate(0, 3) rotate(79.99699877485625) " style="stroke-width: 3; stroke: #FF0D0D;"></line></g><g><line x1="326.9340936038688" x2="310.5340989328679" y1="373.1032093896964" y2="370.21056207617806" transform="" style="stroke: #909090; stroke-width: 3; stroke-linecap: butt;"></line><line x1="294.134104261867" x2="310.5340989328679" y1="367.3179147626597" y2="370.21056207617806" transform="" style="stroke-width: 3; stroke: #FFFF30;"></line></g><g><line x1="355.78063175284103" x2="355.78063175284103" y1="456.36882002637856" y2="473.02194215371503" transform="" style="stroke: #FFFF30; stroke-width: 3; stroke-linecap: butt;"></line><line x1="355.78063175284103" x2="355.78063175284103" y1="489.67506428105145" y2="473.02194215371503" transform="" style="stroke-width: 3; stroke: #FF0D0D;"></line></g><g><line x1="355.78063175284103" x2="339.12750962550456" y1="456.36882002637856" y2="456.36882002637856" transform="rotate(0) translate(0, -3) rotate(0) " style="stroke: #FFFF30; stroke-width: 3; stroke-linecap: butt;"></line><line x1="355.78063175284103" x2="339.12750962550456" y1="456.36882002637856" y2="456.36882002637856" transform="rotate(0) translate(0, 3) rotate(0) " style="stroke: #FFFF30; stroke-width: 3; stroke-linecap: butt;"></line><line x1="322.47438749816814" x2="339.12750962550456" y1="456.36882002637856" y2="456.36882002637856" transform="rotate(0) translate(0, -3) rotate(0) " style="stroke-width: 3; stroke: #FF0D0D;"></line><line x1="322.47438749816814" x2="339.12750962550456" y1="456.36882002637856" y2="456.36882002637856" transform="rotate(0) translate(0, 3) rotate(0) " style="stroke-width: 3; stroke: #FF0D0D;"></line></g><g><line x1="355.78063175284103" x2="372.4337538801775" y1="456.36882002637856" y2="456.36882002637856" transform="rotate(0) translate(0, -3) rotate(0) " style="stroke: #FFFF30; stroke-width: 3; stroke-linecap: butt;"></line><line x1="355.78063175284103" x2="372.4337538801775" y1="456.36882002637856" y2="456.36882002637856" transform="rotate(0) translate(0, 3) rotate(0) " style="stroke: #FFFF30; stroke-width: 3; stroke-linecap: butt;"></line><line x1="389.0868760075139" x2="372.4337538801775" y1="456.36882002637856" y2="456.36882002637856" transform="rotate(0) translate(0, -3) rotate(0) " style="stroke-width: 3; stroke: #FF0D0D;"></line><line x1="389.0868760075139" x2="372.4337538801775" y1="456.36882002637856" y2="456.36882002637856" transform="rotate(0) translate(0, 3) rotate(0) " style="stroke-width: 3; stroke: #FF0D0D;"></line></g><g><line x1="355.78063175284103" x2="355.78063175284103" y1="456.36882002637856" y2="439.7156978990421" transform="" style="stroke: #FFFF30; stroke-width: 3; stroke-linecap: butt;"></line><line x1="355.78063175284103" x2="355.78063175284103" y1="423.06257577170567" y2="439.7156978990421" transform="" style="stroke-width: 3; stroke: #909090;"></line></g><g><line x1="413.46704680193443" x2="399.04544303966105" y1="423.06257577170567" y2="414.7360147080375" transform="" style="stroke: #FF0D0D; stroke-width: 3; stroke-linecap: butt;"></line><line x1="384.6238392773877" x2="399.04544303966105" y1="406.40945364436925" y2="414.7360147080375" transform="" style="stroke-width: 3; stroke: #909090;"></line></g><g><line x1="288.3488096348303" x2="278.6467006834441" y1="400.11790410466153" y2="403.64836599565683" transform="" style="stroke: #FF0D0D; stroke-width: 3; stroke-linecap: butt;"></line><line x1="268.9445917320579" x2="278.6467006834441" y1="407.1788278866522" y2="403.64836599565683" transform="" style="stroke-width: 3; stroke: #FFFFFF;"></line></g><g><line x1="355.78063175284103" x2="346.83790517046134" y1="489.67506428105145" y2="494.8375321405257" transform="" style="stroke: #FF0D0D; stroke-width: 3; stroke-linecap: butt;"></line><line x1="337.89517858808165" x2="346.83790517046134" y1="500" y2="494.8375321405257" transform="" style="stroke-width: 3; stroke: #FFFFFF;"></line></g><g><line x1="442.3102543264811" x2="456.73185808875445" y1="273.1844766256778" y2="264.85791556200957" transform="" style="stroke: #909090; stroke-width: 3; stroke-linecap: butt;"></line><line x1="471.1534618510278" x2="456.73185808875445" y1="256.53135449834133" y2="264.85791556200957" transform="" style="stroke-width: 3; stroke: #3050F8;"></line></g><g><line x1="471.1534618510278" x2="471.1534618510278" y1="223.2251102436685" y2="239.8782323710049" transform="" style="stroke: #909090; stroke-width: 3; stroke-linecap: butt;"></line><line x1="471.1534618510278" x2="471.1534618510278" y1="256.53135449834133" y2="239.8782323710049" transform="" style="stroke-width: 3; stroke: #3050F8;"></line></g><g><line x1="471.1534618510278" x2="480.0961884334075" y1="256.53135449834133" y2="261.69382235781563" transform="" style="stroke: #3050F8; stroke-width: 3; stroke-linecap: butt;"></line><line x1="489.03891501578715" x2="480.0961884334075" y1="266.85629021728994" y2="261.69382235781563" transform="" style="stroke-width: 3; stroke: #FFFFFF;"></line></g><g><line x1="291.5528703321299" x2="280.848243428678" y1="246.60276308602334" y2="233.8448062242709" transform="" style="stroke: #909090; stroke-width: 3; stroke-linecap: butt;"></line><line x1="270.14361652522615" x2="280.848243428678" y1="221.08684936251848" y2="233.8448062242709" transform="" style="stroke-width: 3; stroke: #3050F8;"></line></g><g><line x1="237.3436271832243" x2="253.74362185422524" y1="226.87214398955518" y2="223.97949667603683" transform="" style="stroke: #909090; stroke-width: 3; stroke-linecap: butt;"></line><line x1="270.14361652522615" x2="253.74362185422524" y1="221.08684936251848" y2="223.97949667603683" transform="" style="stroke-width: 3; stroke: #3050F8;"></line></g><g><line x1="270.14361652522615" x2="273.6740784162215" y1="221.08684936251848" y2="211.38474041113227" transform="" style="stroke: #3050F8; stroke-width: 3; stroke-linecap: butt;"></line><line x1="277.2045403072168" x2="273.6740784162215" y1="201.68263145974606" y2="211.38474041113227" transform="" style="stroke-width: 3; stroke: #FFFFFF;"></line></g><g><line x1="355.78063175284103" x2="355.78063175284103" y1="323.1438430076871" y2="339.7969651350235" transform="" style="stroke: #909090; stroke-width: 3; stroke-linecap: butt;"></line><line x1="355.78063175284103" x2="355.78063175284103" y1="356.45008726235994" y2="339.7969651350235" transform="" style="stroke-width: 3; stroke: #909090;"></line></g><g><line x1="355.78063175284103" x2="370.20223551511435" y1="323.1438430076871" y2="314.8172819440189" transform="" style="stroke: #909090; stroke-width: 3; stroke-linecap: butt;"></line><line x1="384.6238392773877" x2="370.20223551511435" y1="306.49072088035064" y2="314.8172819440189" transform="" style="stroke-width: 3; stroke: #909090;"></line></g><g><line x1="355.78063175284103" x2="345.07600484938916" y1="323.1438430076871" y2="310.38588614593465" transform="" style="stroke: #909090; stroke-width: 3; stroke-linecap: butt;"></line><line x1="334.37137794593735" x2="345.07600484938916" y1="297.6279292841822" y2="310.38588614593465" transform="" style="stroke-width: 3; stroke: #909090;"></line></g><g><line x1="326.9340936038688" x2="341.3573626783549" y1="373.1032093896964" y2="364.7766483260282" transform="" style="stroke: #909090; stroke-width: 3; stroke-linecap: round;"></line><line x1="355.78063175284103" x2="341.3573626783549" y1="356.45008726235994" y2="364.7766483260282" transform="" style="stroke-width: 3; stroke: #909090;"></line></g><g><line x1="355.78063175284103" x2="370.20223551511435" y1="356.45008726235994" y2="364.7766483260282" transform="" style="stroke: #909090; stroke-width: 3; stroke-linecap: round;"></line><line x1="355.78063175284103" x2="370.20223551511435" y1="356.45008726235994" y2="364.7766483260282" transform="rotate(30.000727780827486,370.20223551511435,364.7766483260282)translate(0, 6) rotate(-30.000727780827486,370.20223551511435,364.7766483260282)translate(74.04044710302286, 72.95532966520562) scale(0.8)" style="stroke: #909090; stroke-width: 3; stroke-linecap: butt;"></line><line x1="384.6238392773877" x2="370.20223551511435" y1="373.1032093896964" y2="364.7766483260282" transform="" style="stroke-width: 3; stroke: #909090;"></line><line x1="384.6238392773877" x2="370.20223551511435" y1="373.1032093896964" y2="364.7766483260282" transform="rotate(30.000727780827486,370.20223551511435,364.7766483260282)translate(0, 6) rotate(-30.000727780827486,370.20223551511435,364.7766483260282)translate(74.04044710302286, 72.95532966520562) scale(0.8)" style="stroke-width: 3; stroke: #909090;"></line></g><g><line x1="384.6238392773877" x2="399.04544303966105" y1="306.49072088035064" y2="314.8172819440189" transform="" style="stroke: #909090; stroke-width: 3; stroke-linecap: round;"></line><line x1="384.6238392773877" x2="399.04544303966105" y1="306.49072088035064" y2="314.8172819440189" transform="rotate(30.000727780827386,399.04544303966105,314.8172819440189)translate(0, -6) rotate(-30.000727780827386,399.04544303966105,314.8172819440189)translate(79.8090886079322, 62.96345638880376) scale(0.8)" style="stroke: #909090; stroke-width: 3; stroke-linecap: butt;"></line><line x1="413.46704680193443" x2="399.04544303966105" y1="323.1438430076871" y2="314.8172819440189" transform="" style="stroke-width: 3; stroke: #909090;"></line><line x1="413.46704680193443" x2="399.04544303966105" y1="323.1438430076871" y2="314.8172819440189" transform="rotate(30.000727780827386,399.04544303966105,314.8172819440189)translate(0, -6) rotate(-30.000727780827386,399.04544303966105,314.8172819440189)translate(79.8090886079322, 62.96345638880376) scale(0.8)" style="stroke-width: 3; stroke: #909090;"></line></g><g><line x1="384.6238392773877" x2="384.6238392773877" y1="306.49072088035064" y2="289.8375987530142" transform="" style="stroke: #909090; stroke-width: 3; stroke-linecap: round;"></line><line x1="384.6238392773877" x2="384.6238392773877" y1="273.1844766256778" y2="289.8375987530142" transform="" style="stroke-width: 3; stroke: #909090;"></line></g><g><line x1="334.37137794593735" x2="340.0667457134864" y1="297.6279292841822" y2="281.9806557333369" transform="" style="stroke: #909090; stroke-width: 3; stroke-linecap: round;"></line><line x1="334.37137794593735" x2="340.0667457134864" y1="297.6279292841822" y2="281.9806557333369" transform="rotate(-69.99926943082042,340.0667457134864,281.9806557333369)translate(0, -6) rotate(69.99926943082042,340.0667457134864,281.9806557333369)translate(68.01334914269727, 56.396131146667365) scale(0.8)" style="stroke: #909090; stroke-width: 3; stroke-linecap: butt;"></line><line x1="345.76211348103544" x2="340.0667457134864" y1="266.3333821824916" y2="281.9806557333369" transform="" style="stroke-width: 3; stroke: #909090;"></line><line x1="345.76211348103544" x2="340.0667457134864" y1="266.3333821824916" y2="281.9806557333369" transform="rotate(-69.99926943082042,340.0667457134864,281.9806557333369)translate(0, -6) rotate(69.99926943082042,340.0667457134864,281.9806557333369)translate(68.01334914269727, 56.396131146667365) scale(0.8)" style="stroke-width: 3; stroke: #909090;"></line></g><g><line x1="334.37137794593735" x2="317.97138327493644" y1="297.6279292841822" y2="300.5189112854878" transform="" style="stroke: #909090; stroke-width: 3; stroke-linecap: round;"></line><line x1="301.57138860393553" x2="317.97138327493644" y1="303.4098932867934" y2="300.5189112854878" transform="" style="stroke-width: 3; stroke: #909090;"></line></g><g><line x1="326.9340936038688" x2="326.9340936038688" y1="406.40945364436925" y2="389.75633151703283" transform="" style="stroke: #909090; stroke-width: 3; stroke-linecap: round;"></line><line x1="326.9340936038688" x2="326.9340936038688" y1="406.40945364436925" y2="389.75633151703283" transform="rotate(-90,326.9340936038688,389.75633151703283)translate(0, 6) rotate(90,326.9340936038688,389.75633151703283)translate(65.38681872077375, 77.95126630340656) scale(0.8)" style="stroke: #909090; stroke-width: 3; stroke-linecap: butt;"></line><line x1="326.9340936038688" x2="326.9340936038688" y1="373.1032093896964" y2="389.75633151703283" transform="" style="stroke-width: 3; stroke: #909090;"></line><line x1="326.9340936038688" x2="326.9340936038688" y1="373.1032093896964" y2="389.75633151703283" transform="rotate(-90,326.9340936038688,389.75633151703283)translate(0, 6) rotate(90,326.9340936038688,389.75633151703283)translate(65.38681872077375, 77.95126630340656) scale(0.8)" style="stroke-width: 3; stroke: #909090;"></line></g><g><line x1="384.6238392773877" x2="384.6238392773877" y1="406.40945364436925" y2="389.75633151703283" transform="" style="stroke: #909090; stroke-width: 3; stroke-linecap: round;"></line><line x1="384.6238392773877" x2="384.6238392773877" y1="373.1032093896964" y2="389.75633151703283" transform="" style="stroke-width: 3; stroke: #909090;"></line></g><g><line x1="324.3528596741317" x2="335.0574865775836" y1="240.81746845898664" y2="253.57542532073913" transform="" style="stroke: #909090; stroke-width: 3; stroke-linecap: round;"></line><line x1="345.76211348103544" x2="335.0574865775836" y1="266.3333821824916" y2="253.57542532073913" transform="" style="stroke-width: 3; stroke: #909090;"></line></g><g><line x1="442.3102543264811" x2="427.88865056420775" y1="306.49072088035064" y2="314.8172819440189" transform="" style="stroke: #909090; stroke-width: 3; stroke-linecap: round;"></line><line x1="413.46704680193443" x2="427.88865056420775" y1="323.1438430076871" y2="314.8172819440189" transform="" style="stroke-width: 3; stroke: #909090;"></line></g><g><line x1="384.6238392773877" x2="399.04544303966105" y1="273.1844766256778" y2="264.85791556200957" transform="" style="stroke: #909090; stroke-width: 3; stroke-linecap: round;"></line><line x1="384.6238392773877" x2="399.04544303966105" y1="273.1844766256778" y2="264.85791556200957" transform="rotate(-30.000727780827386,399.04544303966105,264.85791556200957)translate(0, 6) rotate(30.000727780827386,399.04544303966105,264.85791556200957)translate(79.8090886079322, 52.9715831124019) scale(0.8)" style="stroke: #909090; stroke-width: 3; stroke-linecap: butt;"></line><line x1="413.46704680193443" x2="399.04544303966105" y1="256.53135449834133" y2="264.85791556200957" transform="" style="stroke-width: 3; stroke: #909090;"></line><line x1="413.46704680193443" x2="399.04544303966105" y1="256.53135449834133" y2="264.85791556200957" transform="rotate(-30.000727780827386,399.04544303966105,264.85791556200957)translate(0, 6) rotate(30.000727780827386,399.04544303966105,264.85791556200957)translate(79.8090886079322, 52.9715831124019) scale(0.8)" style="stroke-width: 3; stroke: #909090;"></line></g><g><line x1="301.57138860393553" x2="290.8667617004836" y1="303.4098932867934" y2="290.65360173725367" transform="" style="stroke: #909090; stroke-width: 3; stroke-linecap: round;"></line><line x1="301.57138860393553" x2="290.8667617004836" y1="303.4098932867934" y2="290.65360173725367" transform="rotate(49.99781932208065,290.8667617004836,290.65360173725367)translate(0, -6) rotate(-49.99781932208065,290.8667617004836,290.65360173725367)translate(58.173352340096706, 58.13072034745072) scale(0.8)" style="stroke: #909090; stroke-width: 3; stroke-linecap: butt;"></line><line x1="280.16213479703174" x2="290.8667617004836" y1="277.89731018771397" y2="290.65360173725367" transform="" style="stroke-width: 3; stroke: #909090;"></line><line x1="280.16213479703174" x2="290.8667617004836" y1="277.89731018771397" y2="290.65360173725367" transform="rotate(49.99781932208065,290.8667617004836,290.65360173725367)translate(0, -6) rotate(-49.99781932208065,290.8667617004836,290.65360173725367)translate(58.173352340096706, 58.13072034745072) scale(0.8)" style="stroke-width: 3; stroke: #909090;"></line></g><g><line x1="442.3102543264811" x2="442.3102543264811" y1="306.49072088035064" y2="289.8375987530142" transform="" style="stroke: #909090; stroke-width: 3; stroke-linecap: round;"></line><line x1="442.3102543264811" x2="442.3102543264811" y1="306.49072088035064" y2="289.8375987530142" transform="rotate(-90,442.3102543264811,289.8375987530142)translate(0, -6) rotate(90,442.3102543264811,289.8375987530142)translate(88.46205086529619, 57.96751975060283) scale(0.8)" style="stroke: #909090; stroke-width: 3; stroke-linecap: butt;"></line><line x1="442.3102543264811" x2="442.3102543264811" y1="273.1844766256778" y2="289.8375987530142" transform="" style="stroke-width: 3; stroke: #909090;"></line><line x1="442.3102543264811" x2="442.3102543264811" y1="273.1844766256778" y2="289.8375987530142" transform="rotate(-90,442.3102543264811,289.8375987530142)translate(0, -6) rotate(90,442.3102543264811,289.8375987530142)translate(88.46205086529619, 57.96751975060283) scale(0.8)" style="stroke-width: 3; stroke: #909090;"></line></g><g><line x1="471.1534618510278" x2="456.73185808875445" y1="323.1438430076871" y2="314.8172819440189" transform="" style="stroke: #909090; stroke-width: 3; stroke-linecap: butt;"></line><line x1="442.3102543264811" x2="456.73185808875445" y1="306.49072088035064" y2="314.8172819440189" transform="" style="stroke-width: 3; stroke: #909090;"></line></g><g><line x1="324.3528596741317" x2="307.9528650031308" y1="240.81746845898664" y2="243.710115772505" transform="" style="stroke: #909090; stroke-width: 3; stroke-linecap: round;"></line><line x1="324.3528596741317" x2="307.9528650031308" y1="240.81746845898664" y2="243.710115772505" transform="rotate(-10.00300122514375,307.9528650031308,243.710115772505)translate(0, 6) rotate(10.00300122514375,307.9528650031308,243.710115772505)translate(61.590573000626144, 48.742023154500984) scale(0.8)" style="stroke: #909090; stroke-width: 3; stroke-linecap: butt;"></line><line x1="291.5528703321299" x2="307.9528650031308" y1="246.60276308602334" y2="243.710115772505" transform="" style="stroke-width: 3; stroke: #909090;"></line><line x1="291.5528703321299" x2="307.9528650031308" y1="246.60276308602334" y2="243.710115772505" transform="rotate(-10.00300122514375,307.9528650031308,243.710115772505)translate(0, 6) rotate(10.00300122514375,307.9528650031308,243.710115772505)translate(61.590573000626144, 48.742023154500984) scale(0.8)" style="stroke-width: 3; stroke: #909090;"></line></g><g><line x1="335.74359520922985" x2="330.04822744168075" y1="209.51959073287065" y2="225.16852959592865" transform="" style="stroke: #909090; stroke-width: 3; stroke-linecap: butt;"></line><line x1="324.3528596741317" x2="330.04822744168075" y1="240.81746845898664" y2="225.16852959592865" transform="" style="stroke-width: 3; stroke: #909090;"></line></g><g><line x1="355.78063175284103" x2="341.3573626783549" y1="423.06257577170567" y2="414.7360147080375" transform="" style="stroke: #909090; stroke-width: 3; stroke-linecap: round;"></line><line x1="326.9340936038688" x2="341.3573626783549" y1="406.40945364436925" y2="414.7360147080375" transform="" style="stroke-width: 3; stroke: #909090;"></line></g><g><line x1="384.6238392773877" x2="370.20223551511435" y1="406.40945364436925" y2="414.7360147080375" transform="" style="stroke: #909090; stroke-width: 3; stroke-linecap: round;"></line><line x1="384.6238392773877" x2="370.20223551511435" y1="406.40945364436925" y2="414.7360147080375" transform="rotate(-30.0007277808274,370.20223551511435,414.7360147080375)translate(0, -6) rotate(30.0007277808274,370.20223551511435,414.7360147080375)translate(74.04044710302286, 82.94720294160749) scale(0.8)" style="stroke: #909090; stroke-width: 3; stroke-linecap: butt;"></line><line x1="355.78063175284103" x2="370.20223551511435" y1="423.06257577170567" y2="414.7360147080375" transform="" style="stroke-width: 3; stroke: #909090;"></line><line x1="355.78063175284103" x2="370.20223551511435" y1="423.06257577170567" y2="414.7360147080375" transform="rotate(-30.0007277808274,370.20223551511435,414.7360147080375)translate(0, -6) rotate(30.0007277808274,370.20223551511435,414.7360147080375)translate(74.04044710302286, 82.94720294160749) scale(0.8)" style="stroke-width: 3; stroke: #909090;"></line></g><g><line x1="280.16213479703174" x2="285.85750256458084" y1="277.89731018771397" y2="262.2500366368687" transform="" style="stroke: #909090; stroke-width: 3; stroke-linecap: round;"></line><line x1="291.5528703321299" x2="285.85750256458084" y1="246.60276308602334" y2="262.2500366368687" transform="" style="stroke-width: 3; stroke: #909090;"></line></g><g><line x1="413.46704680193443" x2="427.88865056420775" y1="256.53135449834133" y2="264.85791556200957" transform="" style="stroke: #909090; stroke-width: 3; stroke-linecap: round;"></line><line x1="442.3102543264811" x2="427.88865056420775" y1="273.1844766256778" y2="264.85791556200957" transform="" style="stroke-width: 3; stroke: #909090;"></line></g><g><line x1="237.3436271832243" x2="226.63900027977246" y1="226.87214398955518" y2="214.11418712780272" transform="" style="stroke: #909090; stroke-width: 3; stroke-linecap: butt;"></line><line x1="215.9343733763206" x2="226.63900027977246" y1="201.35623026605026" y2="214.11418712780272" transform="" style="stroke-width: 3; stroke: #909090;"></line></g><g><line x1="471.1534618510278" x2="485.5767309255139" y1="223.2251102436685" y2="214.8985491800003" transform="" style="stroke: #909090; stroke-width: 3; stroke-linecap: butt;"></line><line x1="500" x2="485.5767309255139" y1="206.57198811633208" y2="214.8985491800003" transform="" style="stroke-width: 3; stroke: #909090;"></line></g><g class="atom" transform="translate(294.134104261867, 367.3179147626597) "><circle r="8" style="fill: #FFFF30;"></circle></g><g class="atom" transform="translate(355.78063175284103, 456.36882002637856) "><circle r="8" style="fill: #FFFF30;"></circle></g><g class="atom" transform="translate(442.3102543264811, 406.40945364436925) "><circle r="8" style="fill: #AB5CF2;"></circle></g><g class="atom" transform="translate(413.46704680193443, 423.06257577170567) "><circle r="8" style="fill: #FF0D0D;"></circle></g><g class="atom" transform="translate(288.3488096348303, 400.11790410466153) "><circle r="8" style="fill: #FF0D0D;"></circle></g><g class="atom" transform="translate(261.3341149198652, 361.5359507600485) "><circle r="8" style="fill: #FF0D0D;"></circle></g><g class="atom" transform="translate(299.9193988889037, 334.5179254206579) "><circle r="8" style="fill: #FF0D0D;"></circle></g><g class="atom" transform="translate(355.78063175284103, 489.67506428105145) "><circle r="8" style="fill: #FF0D0D;"></circle></g><g class="atom" transform="translate(322.47438749816814, 456.36882002637856) "><circle r="8" style="fill: #FF0D0D;"></circle></g><g class="atom" transform="translate(389.0868760075139, 456.36882002637856) "><circle r="8" style="fill: #FF0D0D;"></circle></g><g class="atom" transform="translate(471.1534618510278, 256.53135449834133) "><circle r="8" style="fill: #3050F8;"></circle></g><g class="atom" transform="translate(270.14361652522615, 221.08684936251848) "><circle r="8" style="fill: #3050F8;"></circle></g><g class="atom" transform="translate(489.03891501578715, 266.85629021728994) "><circle r="8" style="fill: #FFFFFF;"></circle></g><g class="atom" transform="translate(277.2045403072168, 201.68263145974606) "><circle r="8" style="fill: #FFFFFF;"></circle></g><g class="atom" transform="translate(268.9445917320579, 407.1788278866522) "><circle r="8" style="fill: #FFFFFF;"></circle></g><g class="atom" transform="translate(337.89517858808165, 500) "><circle r="8" style="fill: #FFFFFF;"></circle></g></g></svg>